<svg width="23" height="21" viewBox="0 0 23 21" fill="none" xmlns="http://www.w3.org/2000/svg">
<path d="M16.2891 12.8438C16.25 12.8828 16.25 12.9609 16.25 13V18.625C16.25 18.9766 15.9375 19.25 15.625 19.25H1.875C1.52344 19.25 1.25 18.9766 1.25 18.625V4.875C1.25 4.5625 1.52344 4.25 1.875 4.25H12.5C12.5391 4.25 12.6172 4.25 12.6562 4.21094L13.4375 3.42969C13.5938 3.27344 13.4766 3 13.2812 3H1.875C0.820312 3 0 3.85938 0 4.875V18.625C0 19.6797 0.820312 20.5 1.875 20.5H15.625C16.6406 20.5 17.5 19.6797 17.5 18.625V12.2188C17.5 12.0234 17.2266 11.9062 17.0703 12.0625L16.2891 12.8438ZM21.9922 5.38281C22.6562 4.71875 22.6562 3.70312 21.9922 3.03906L19.9609 1.00781C19.2969 0.34375 18.2812 0.34375 17.6172 1.00781L5.42969 13.1953L5 17.1016C4.92188 17.6484 5.35156 18.0781 5.89844 18L9.80469 17.5703L21.9922 5.38281ZM18.3594 7.25781L9.21875 16.3984L6.28906 16.7109L6.60156 13.7812L15.7422 4.64062L18.3594 7.25781ZM21.1328 3.9375C21.2891 4.09375 21.2891 4.32812 21.1328 4.48438L19.2188 6.35938L16.6406 3.78125L18.5156 1.86719C18.6719 1.71094 18.9062 1.75 19.0625 1.86719L21.1328 3.9375Z" fill="#1E2661"/>
</svg>
