<?xml version="1.0" encoding="UTF-8"?>
<svg id="a" data-name="Camada 1" xmlns="http://www.w3.org/2000/svg" xmlns:xlink="http://www.w3.org/1999/xlink" viewBox="0 0 32 32">
  <defs>
    <style>
      .c {
        clip-path: url(#b);
      }

      .d {
        fill: #4c3778;
      }

      .e {
        fill: none;
      }
    </style>
    <clipPath id="b">
      <rect class="e" x="-74" y="-12" width="180" height="55.38"/>
    </clipPath>
  </defs>
  <g class="c">
    <g>
      <path class="d" d="M16,9.46c-1.94,0-3.81,.77-5.18,2.14-1.38,1.37-2.15,3.23-2.15,5.17h3.43v6.19c.96,.6,2.05,.98,3.18,1.09,1.13,.11,2.27-.04,3.34-.44,1.06-.4,2.02-1.05,2.79-1.88,.77-.83,1.33-1.83,1.65-2.92,.32-1.09,.37-2.24,.17-3.35-.21-1.11-.67-2.17-1.35-3.07s-1.57-1.64-2.59-2.15c-1.02-.51-2.14-.77-3.28-.77h0Zm0,11.2c-.77,0-1.53-.23-2.17-.66-.64-.43-1.14-1.04-1.44-1.75s-.37-1.5-.22-2.25c.15-.76,.52-1.45,1.07-1.99,.55-.54,1.24-.92,2-1.07,.76-.15,1.54-.07,2.26,.22,.71,.3,1.32,.79,1.75,1.44s.66,1.39,.66,2.16c0,1.03-.41,2.02-1.15,2.75-.73,.73-1.73,1.14-2.76,1.14h0Z"/>
      <path class="d" d="M10.34,2.77c1.17,.59,2.3,1.18,3.46,1.77l1.84-2.84s.04-.05,.07-.06c.03-.01,.06-.02,.09-.02s.06,0,.09,.02c.03,.01,.05,.03,.07,.06,.62,.95,1.22,1.9,1.84,2.84,1.16-.6,2.23-1.15,3.41-1.75,0,0,.13-.07,.1,.02,0,.02-.01,.05-.02,.07-.59,1.66-1.17,3.33-1.76,4.99,0,.03-.03,.06-.06,.08-.03,.02-.06,.03-.1,.02h-7.12s-.04,0-.05,0c-.02,0-.04-.01-.05-.02-.02-.01-.03-.02-.04-.04,0-.02-.02-.03-.02-.05-.59-1.67-1.18-3.34-1.77-5,0,0-.07-.13,.03-.07Z"/>
      <path class="d" d="M8.72,17.46s0-.09-.01-.09c-.01,0-.04-.6-.04-.6v13.44s.02,.09,.05,.12,.07,.05,.12,.05h3.1s.09-.02,.12-.05c.03-.03,.05-.07,.05-.12v-7.25c-.95-.6-1.75-1.4-2.33-2.36s-.94-2.03-1.04-3.14h0Z"/>
    </g>
  </g>
</svg>