<svg width="19" height="21" viewBox="0 0 19 21" fill="none" xmlns="http://www.w3.org/2000/svg">
<path d="M15.0625 7.88281C14.3984 6.75 12.9531 6.4375 11.8594 7.10156C11.2344 6.28125 10.1797 6.00781 9.28125 6.32031V2.88281C9.28125 1.59375 8.22656 0.5 6.9375 0.5C5.64844 0.5 4.59375 1.59375 4.59375 2.88281V9.99219C3.8125 9.44531 2.75781 9.44531 1.9375 10.0312C0.882812 10.8125 0.6875 12.2578 1.42969 13.3125L5.88281 19.5625C6.3125 20.1484 7.01562 20.5 7.79688 20.5H15.0234C16.1172 20.5 17.0547 19.7578 17.2891 18.7031L18.4219 13.8984C18.4609 13.7422 18.5 13.5078 18.5 13.3516V9.95312C18.5 8.19531 16.5859 7.0625 15.0625 7.88281ZM4.20312 11.2812L5.29688 12.8438C5.29688 13 5.41406 13.1562 5.60938 13.1562C5.76562 13.1562 5.92188 13 5.92188 12.8438C5.92188 12.7656 5.88281 12.6875 5.84375 12.6484V2.88281C5.84375 1.39844 8.03125 1.39844 8.03125 2.88281V9.95312C8.03125 10.1094 8.14844 10.2656 8.34375 10.2656H8.61719C8.77344 10.2656 8.92969 10.1094 8.92969 9.95312V8.54688C8.92969 7.0625 11.0781 7.0625 11.0781 8.54688V9.95312C11.0781 10.1094 11.2344 10.2656 11.3906 10.2656H11.7031C11.8594 10.2656 12.0156 10.1094 12.0156 9.95312V9.09375C12.0156 7.64844 14.1641 7.64844 14.1641 9.09375V9.95312C14.1641 10.1094 14.3203 10.2656 14.4766 10.2656H14.75C14.9062 10.2656 15.0625 10.1094 15.0625 9.95312C15.0625 8.50781 17.25 8.50781 17.25 9.95312V13.3516C17.25 13.4297 17.2109 13.5078 17.2109 13.5859L16.0781 18.4297C15.9609 18.9375 15.5312 19.25 15.0234 19.25H7.79688C7.44531 19.25 7.09375 19.0938 6.89844 18.8203L2.44531 12.5703C1.58594 11.3594 3.38281 10.1484 4.20312 11.2812ZM8.03125 16.1641C8.03125 16.3594 8.14844 16.4766 8.34375 16.4766H8.61719C8.77344 16.4766 8.92969 16.3594 8.92969 16.1641V12.7656C8.92969 12.6094 8.77344 12.4531 8.61719 12.4531H8.34375C8.14844 12.4531 8.03125 12.6094 8.03125 12.7656V16.1641ZM11.0781 16.1641C11.0781 16.3594 11.2344 16.4766 11.3906 16.4766H11.7031C11.8594 16.4766 12.0156 16.3594 12.0156 16.1641V12.7656C12.0156 12.6094 11.8594 12.4531 11.7031 12.4531H11.3906C11.2344 12.4531 11.0781 12.6094 11.0781 12.7656V16.1641ZM14.1641 16.1641C14.1641 16.3594 14.3203 16.4766 14.4766 16.4766H14.75C14.9062 16.4766 15.0625 16.3594 15.0625 16.1641V12.7656C15.0625 12.6094 14.9062 12.4531 14.75 12.4531H14.4766C14.3203 12.4531 14.1641 12.6094 14.1641 12.7656V16.1641Z" fill="#E9EBF6"/>
</svg>
