<svg width="21" height="19" viewBox="0 0 21 19" fill="none" xmlns="http://www.w3.org/2000/svg">
<path d="M20.1328 8.48438L11.0312 1.0625C10.8359 0.90625 10.4844 0.789062 10.2109 0.789062C9.97656 0.789062 9.625 0.90625 9.42969 1.0625L0.367188 8.48438C0.289062 8.52344 0.25 8.64062 0.25 8.71875C0.25 8.75781 0.25 8.875 0.289062 8.91406L0.679688 9.38281C0.757812 9.46094 0.875 9.5 0.953125 9.5C0.992188 9.5 1.07031 9.46094 1.14844 9.42188L2.75 8.13281V17.625C2.75 17.9766 3.02344 18.25 3.375 18.25H8.375C8.6875 18.25 9 17.9766 9 17.625V12.625H11.5V17.625C11.5 17.9766 11.7734 18.25 12.125 18.25H17.125C17.4375 18.25 17.75 17.9766 17.75 17.625V8.13281L19.3125 9.42188C19.3906 9.46094 19.4688 9.5 19.5078 9.5C19.625 9.5 19.7031 9.46094 19.7812 9.38281L20.1719 8.91406C20.2109 8.875 20.2109 8.75781 20.2109 8.71875C20.2109 8.64062 20.1719 8.52344 20.1328 8.48438ZM16.4609 17L12.7109 17.0391V12C12.7109 11.6875 12.4375 11.375 12.125 11.375H8.375H8.33594C8.02344 11.375 7.71094 11.6484 7.71094 12V17H4V7.11719L10.25 2L16.5 7.11719L16.4609 17Z" fill="#68F4A0"/>
</svg>
