<svg width="90" height="90" viewBox="0 0 90 90" fill="none" xmlns="http://www.w3.org/2000/svg">
<circle cx="45" cy="45" r="45" fill="#F8F8FD"/>
<path d="M45.378 26.4469C55.2475 26.4469 63.4441 34.5599 63.4441 44.5131C63.4441 54.5498 55.3311 62.5793 45.378 62.5793C35.3412 62.5793 27.3118 54.5498 27.3118 44.5131C27.3118 34.5599 35.3412 26.4469 45.378 26.4469ZM45.378 23.7704C33.9193 23.7704 24.6353 33.1381 24.6353 44.5131C24.6353 55.9717 33.9193 65.2557 45.378 65.2557C56.753 65.2557 66.1206 55.9717 66.1206 44.5131C66.1206 33.1381 56.753 23.7704 45.378 23.7704ZM44.3743 33.8072C43.7888 33.8072 43.3706 34.309 43.3706 34.8945L43.9561 48.946C43.9561 49.4478 44.4579 49.866 44.9598 49.866H45.7125C46.2144 49.866 46.7162 49.4478 46.7162 48.946L47.3017 34.8945C47.3017 34.309 46.8835 33.8072 46.298 33.8072H44.3743ZM45.378 51.5388C44.0397 51.5388 43.0361 52.6261 43.0361 53.8807C43.0361 55.219 44.0397 56.2226 45.378 56.2226C46.6326 56.2226 47.7199 55.219 47.7199 53.8807C47.7199 52.6261 46.6326 51.5388 45.378 51.5388Z" fill="url(#paint0_linear_147_1301)"/>
<defs>
<linearGradient id="paint0_linear_147_1301" x1="54.7218" y1="33.6944" x2="41.212" y2="54.7824" gradientUnits="userSpaceOnUse">
<stop stop-color="#2DCED6"/>
<stop offset="1" stop-color="#2E70D4"/>
</linearGradient>
</defs>
</svg>
