<svg width="18" height="21" viewBox="0 0 18 21" fill="none" xmlns="http://www.w3.org/2000/svg">
<path d="M13.4375 9.875H4.0625C3.86719 9.875 3.75 10.0312 3.75 10.1875V10.8125C3.75 11.0078 3.86719 11.125 4.0625 11.125H13.4375C13.5938 11.125 13.75 11.0078 13.75 10.8125V10.1875C13.75 10.0312 13.5938 9.875 13.4375 9.875ZM13.4375 13.625H4.0625C3.86719 13.625 3.75 13.7812 3.75 13.9375V14.5625C3.75 14.7578 3.86719 14.875 4.0625 14.875H13.4375C13.5938 14.875 13.75 14.7578 13.75 14.5625V13.9375C13.75 13.7812 13.5938 13.625 13.4375 13.625ZM16.3281 0.5C16.0938 0.5 15.8594 0.578125 15.625 0.734375L13.9453 1.94531L12.4219 0.890625C12.1094 0.65625 11.7188 0.539062 11.3281 0.539062C10.9375 0.539062 10.5859 0.65625 10.2344 0.890625L8.75 1.94531L7.22656 0.890625C6.91406 0.65625 6.52344 0.539062 6.13281 0.539062C5.74219 0.539062 5.35156 0.65625 5.03906 0.890625L3.51562 1.94531L1.83594 0.734375C1.60156 0.578125 1.36719 0.5 1.13281 0.5C0.546875 0.539062 0 1.00781 0 1.67188V19.3672C0 20.0312 0.546875 20.5 1.13281 20.5C1.36719 20.5 1.60156 20.4609 1.83594 20.3047L3.51562 19.0547L5.03906 20.1484C5.35156 20.3828 5.74219 20.5 6.13281 20.5C6.52344 20.5 6.91406 20.3828 7.22656 20.1484L8.75 19.0547L10.2344 20.1484C10.5859 20.3828 10.9375 20.5 11.3281 20.5C11.7188 20.5 12.1094 20.3828 12.4219 20.1484L13.9453 19.0547L15.625 20.3047C15.8594 20.4609 16.0938 20.5 16.3281 20.5C16.9141 20.5 17.4609 20.0312 17.4609 19.3672V1.67188C17.5 1.00781 16.9141 0.5 16.3281 0.5ZM16.25 19.1719L14.6875 18.0391L13.9453 17.5312L13.2031 18.0391L11.7188 19.1328C11.6016 19.2109 11.4844 19.25 11.3281 19.25C11.2109 19.25 11.0938 19.2109 10.9766 19.1328L9.45312 18.0391L8.75 17.5312L8.00781 18.0391L6.48438 19.1328C6.36719 19.2109 6.25 19.25 6.13281 19.25C5.97656 19.25 5.85938 19.2109 5.74219 19.1328L4.25781 18.0391L3.51562 17.5312L2.8125 18.0391L1.25 19.2109V1.86719L2.8125 2.96094L3.51562 3.50781L4.25781 2.96094L5.78125 1.90625C5.85938 1.82812 6.01562 1.78906 6.13281 1.78906C6.25 1.78906 6.36719 1.82812 6.48438 1.90625L8.00781 2.96094L8.75 3.50781L9.45312 2.96094L10.9766 1.90625C11.0938 1.82812 11.2109 1.78906 11.3281 1.78906C11.4844 1.78906 11.6016 1.82812 11.7188 1.90625L13.2031 2.96094L13.9453 3.50781L14.6875 2.96094L16.25 1.86719V19.1719ZM13.4375 6.125H4.0625C3.86719 6.125 3.75 6.28125 3.75 6.4375V7.0625C3.75 7.25781 3.86719 7.375 4.0625 7.375H13.4375C13.5938 7.375 13.75 7.25781 13.75 7.0625V6.4375C13.75 6.28125 13.5938 6.125 13.4375 6.125Z" fill="#E9EBF6"/>
</svg>
