<svg width="90" height="90" viewBox="0 0 90 90" fill="none" xmlns="http://www.w3.org/2000/svg">
<circle cx="45" cy="45" r="45" fill="#F8F8FD"/>
<path d="M55.849 44.8658C54.3766 44.8658 53.2314 46.0928 53.2314 47.4834C53.2314 48.9558 54.3766 50.1011 55.849 50.1011C57.2397 50.1011 58.4667 48.9558 58.4667 47.4834C58.4667 46.0928 57.2397 44.8658 55.849 44.8658ZM62.3932 31.7775H61.0843V30.4687C61.0843 28.3419 59.2847 26.5422 57.1579 26.5422H32.2902C27.8729 26.5422 24.4373 30.0597 24.4373 34.3952V55.3364C24.4373 59.7536 27.8729 63.1893 32.2902 63.1893H61.0843C63.9474 63.1893 66.3196 60.8989 66.3196 57.954V35.704C66.3196 33.5772 64.52 31.7775 62.3932 31.7775ZM63.702 57.954C63.702 59.4264 62.475 60.5717 61.0843 60.5717H32.2902C29.3454 60.5717 27.0549 58.2812 27.0549 55.3364V34.3952C27.0549 31.5321 29.3454 29.1599 32.2902 29.1599H57.1579C57.8123 29.1599 58.4667 29.8143 58.4667 30.4687V31.7775H33.599C32.8628 31.7775 32.2902 32.4319 32.2902 33.0864C32.2902 33.8226 32.8628 34.3952 33.599 34.3952H62.3932C63.0476 34.3952 63.702 35.0496 63.702 35.704V57.954Z" fill="url(#paint0_linear_147_1096)"/>
<defs>
<linearGradient id="paint0_linear_147_1096" x1="54.7223" y1="33.6941" x2="41.2125" y2="54.7821" gradientUnits="userSpaceOnUse">
<stop stop-color="#2DCED6"/>
<stop offset="1" stop-color="#2E70D4"/>
</linearGradient>
</defs>
</svg>
