<svg width="325" height="80" viewBox="0 0 325 80" fill="none" xmlns="http://www.w3.org/2000/svg">
<g clip-path="url(#clip0_1990_38240)">
<rect width="325" height="80" rx="10" fill="#A561F3"/>
<path d="M16.5038 46.2651V33.6651H18.8078V46.2651H16.5038ZM21.1959 46.2651V37.3371H23.2299L23.4099 38.8491C23.6859 38.3211 24.0819 37.9011 24.5979 37.5891C25.1259 37.2771 25.7439 37.1211 26.4519 37.1211C27.5559 37.1211 28.4139 37.4691 29.0259 38.1651C29.6379 38.8611 29.9439 39.8811 29.9439 41.2251V46.2651H27.6399V41.4411C27.6399 40.6731 27.4839 40.0851 27.1719 39.6771C26.8599 39.2691 26.3739 39.0651 25.7139 39.0651C25.0659 39.0651 24.5319 39.2931 24.1119 39.7491C23.7039 40.2051 23.4999 40.8411 23.4999 41.6571V46.2651H21.1959ZM36.2511 46.4811C35.4111 46.4811 34.6611 46.2771 34.0011 45.8691C33.3411 45.4611 32.8191 44.9031 32.4351 44.1951C32.0511 43.4871 31.8591 42.6831 31.8591 41.7831C31.8591 40.8831 32.0511 40.0851 32.4351 39.3891C32.8191 38.6811 33.3411 38.1291 34.0011 37.7331C34.6611 37.3251 35.4111 37.1211 36.2511 37.1211C36.9231 37.1211 37.5111 37.2471 38.0151 37.4991C38.5191 37.7511 38.9271 38.1051 39.2391 38.5611V33.3051H41.5431V46.2651H39.4911L39.2391 44.9871C38.9511 45.3831 38.5671 45.7311 38.0871 46.0311C37.6191 46.3311 37.0071 46.4811 36.2511 46.4811ZM36.7371 44.4651C37.4811 44.4651 38.0871 44.2191 38.5551 43.7271C39.0351 43.2231 39.2751 42.5811 39.2751 41.8011C39.2751 41.0211 39.0351 40.3851 38.5551 39.8931C38.0871 39.3891 37.4811 39.1371 36.7371 39.1371C36.0051 39.1371 35.3991 39.3831 34.9191 39.8751C34.4391 40.3671 34.1991 41.0031 34.1991 41.7831C34.1991 42.5631 34.4391 43.2051 34.9191 43.7091C35.3991 44.2131 36.0051 44.4651 36.7371 44.4651ZM45.1312 35.9511C44.7112 35.9511 44.3632 35.8251 44.0872 35.5731C43.8232 35.3211 43.6912 35.0031 43.6912 34.6191C43.6912 34.2351 43.8232 33.9231 44.0872 33.6831C44.3632 33.4311 44.7112 33.3051 45.1312 33.3051C45.5512 33.3051 45.8932 33.4311 46.1572 33.6831C46.4332 33.9231 46.5712 34.2351 46.5712 34.6191C46.5712 35.0031 46.4332 35.3211 46.1572 35.5731C45.8932 35.8251 45.5512 35.9511 45.1312 35.9511ZM43.9792 46.2651V37.3371H46.2832V46.2651H43.9792ZM55.7801 50.2251V44.9871C55.4921 45.3831 55.1081 45.7311 54.6281 46.0311C54.1601 46.3311 53.5481 46.4811 52.7921 46.4811C51.9521 46.4811 51.2021 46.2771 50.5421 45.8691C49.8821 45.4611 49.3601 44.9031 48.9761 44.1951C48.5921 43.4871 48.4001 42.6831 48.4001 41.7831C48.4001 40.8831 48.5921 40.0851 48.9761 39.3891C49.3601 38.6811 49.8821 38.1291 50.5421 37.7331C51.2021 37.3251 51.9521 37.1211 52.7921 37.1211C53.4641 37.1211 54.0521 37.2471 54.5561 37.4991C55.0601 37.7511 55.4681 38.1051 55.7801 38.5611L56.0321 37.3371H58.0841V50.2251H55.7801ZM53.2781 44.4651C54.0221 44.4651 54.6281 44.2191 55.0961 43.7271C55.5761 43.2231 55.8161 42.5811 55.8161 41.8011C55.8161 41.0211 55.5761 40.3851 55.0961 39.8931C54.6281 39.3891 54.0221 39.1371 53.2781 39.1371C52.5461 39.1371 51.9401 39.3831 51.4601 39.8751C50.9801 40.3671 50.7401 41.0031 50.7401 41.7831C50.7401 42.5631 50.9801 43.2051 51.4601 43.7091C51.9401 44.2131 52.5461 44.4651 53.2781 44.4651ZM63.7783 46.4811C62.6623 46.4811 61.7983 46.1331 61.1863 45.4371C60.5863 44.7411 60.2863 43.7211 60.2863 42.3771V37.3371H62.5723V42.1611C62.5723 42.9291 62.7283 43.5171 63.0403 43.9251C63.3523 44.3331 63.8443 44.5371 64.5163 44.5371C65.1523 44.5371 65.6743 44.3091 66.0823 43.8531C66.5023 43.3971 66.7123 42.7611 66.7123 41.9451V37.3371H69.0163V46.2651H66.9823L66.8023 44.7531C66.5263 45.2811 66.1243 45.7011 65.5963 46.0131C65.0803 46.3251 64.4743 46.4811 63.7783 46.4811ZM75.7194 46.4811C74.8194 46.4811 74.0214 46.2891 73.3254 45.9051C72.6294 45.5211 72.0834 44.9811 71.6874 44.2851C71.2914 43.5891 71.0934 42.7851 71.0934 41.8731C71.0934 40.9491 71.2854 40.1271 71.6694 39.4071C72.0654 38.6871 72.6054 38.1291 73.2894 37.7331C73.9854 37.3251 74.8014 37.1211 75.7374 37.1211C76.6134 37.1211 77.3874 37.3131 78.0594 37.6971C78.7314 38.0811 79.2534 38.6091 79.6254 39.2811C80.0094 39.9411 80.2014 40.6791 80.2014 41.4951C80.2014 41.6271 80.1954 41.7651 80.1834 41.9091C80.1834 42.0531 80.1774 42.2031 80.1654 42.3591H73.3794C73.4274 43.0551 73.6674 43.6011 74.0994 43.9971C74.5434 44.3931 75.0774 44.5911 75.7014 44.5911C76.1694 44.5911 76.5594 44.4891 76.8714 44.2851C77.1954 44.0691 77.4354 43.7931 77.5914 43.4571H79.9314C79.7634 44.0211 79.4814 44.5371 79.0854 45.0051C78.7014 45.4611 78.2214 45.8211 77.6454 46.0851C77.0814 46.3491 76.4394 46.4811 75.7194 46.4811ZM75.7374 38.9931C75.1734 38.9931 74.6754 39.1551 74.2434 39.4791C73.8114 39.7911 73.5354 40.2711 73.4154 40.9191H77.8614C77.8254 40.3311 77.6094 39.8631 77.2134 39.5151C76.8174 39.1671 76.3254 38.9931 75.7374 38.9931ZM89.7763 46.4811C88.6603 46.4811 87.7963 46.1331 87.1843 45.4371C86.5843 44.7411 86.2843 43.7211 86.2843 42.3771V37.3371H88.5703V42.1611C88.5703 42.9291 88.7263 43.5171 89.0383 43.9251C89.3503 44.3331 89.8423 44.5371 90.5143 44.5371C91.1503 44.5371 91.6723 44.3091 92.0803 43.8531C92.5003 43.3971 92.7103 42.7611 92.7103 41.9451V37.3371H95.0143V46.2651H92.9803L92.8003 44.7531C92.5243 45.2811 92.1223 45.7011 91.5943 46.0131C91.0783 46.3251 90.4723 46.4811 89.7763 46.4811ZM97.3795 46.2651V37.3371H99.4135L99.6115 38.5431C99.8995 38.1111 100.277 37.7691 100.745 37.5171C101.225 37.2531 101.777 37.1211 102.401 37.1211C103.781 37.1211 104.759 37.6551 105.335 38.7231C105.659 38.2311 106.091 37.8411 106.631 37.5531C107.183 37.2651 107.783 37.1211 108.431 37.1211C109.595 37.1211 110.489 37.4691 111.113 38.1651C111.737 38.8611 112.049 39.8811 112.049 41.2251V46.2651H109.745V41.4411C109.745 40.6731 109.595 40.0851 109.295 39.6771C109.007 39.2691 108.557 39.0651 107.945 39.0651C107.321 39.0651 106.817 39.2931 106.433 39.7491C106.061 40.2051 105.875 40.8411 105.875 41.6571V46.2651H103.571V41.4411C103.571 40.6731 103.421 40.0851 103.121 39.6771C102.821 39.2691 102.359 39.0651 101.735 39.0651C101.123 39.0651 100.625 39.2931 100.241 39.7491C99.8695 40.2051 99.6835 40.8411 99.6835 41.6571V46.2651H97.3795ZM117.77 46.2651L122.378 33.6651H124.97L129.578 46.2651H127.13L126.122 43.3491H121.208L120.182 46.2651H117.77ZM121.838 41.5491H125.492L123.656 36.3111L121.838 41.5491ZM131.147 46.2651V37.3371H133.181L133.379 38.5431C133.667 38.1111 134.045 37.7691 134.513 37.5171C134.993 37.2531 135.545 37.1211 136.169 37.1211C137.549 37.1211 138.527 37.6551 139.103 38.7231C139.427 38.2311 139.859 37.8411 140.399 37.5531C140.951 37.2651 141.551 37.1211 142.199 37.1211C143.363 37.1211 144.257 37.4691 144.881 38.1651C145.505 38.8611 145.817 39.8811 145.817 41.2251V46.2651H143.513V41.4411C143.513 40.6731 143.363 40.0851 143.063 39.6771C142.775 39.2691 142.325 39.0651 141.713 39.0651C141.089 39.0651 140.585 39.2931 140.201 39.7491C139.829 40.2051 139.643 40.8411 139.643 41.6571V46.2651H137.339V41.4411C137.339 40.6731 137.189 40.0851 136.889 39.6771C136.589 39.2691 136.127 39.0651 135.503 39.0651C134.891 39.0651 134.393 39.2931 134.009 39.7491C133.637 40.2051 133.451 40.8411 133.451 41.6571V46.2651H131.147ZM149.246 35.9511C148.826 35.9511 148.478 35.8251 148.202 35.5731C147.938 35.3211 147.806 35.0031 147.806 34.6191C147.806 34.2351 147.938 33.9231 148.202 33.6831C148.478 33.4311 148.826 33.3051 149.246 33.3051C149.666 33.3051 150.008 33.4311 150.272 33.6831C150.548 33.9231 150.686 34.2351 150.686 34.6191C150.686 35.0031 150.548 35.3211 150.272 35.5731C150.008 35.8251 149.666 35.9511 149.246 35.9511ZM148.094 46.2651V37.3371H150.398V46.2651H148.094ZM156.583 43.6011C156.151 43.6011 155.749 43.5531 155.377 43.4571L154.711 44.1231C154.915 44.2311 155.191 44.3211 155.539 44.3931C155.887 44.4651 156.451 44.5371 157.231 44.6091C158.419 44.7171 159.283 44.9991 159.823 45.4551C160.363 45.9111 160.633 46.5411 160.633 47.3451C160.633 47.8731 160.489 48.3711 160.201 48.8391C159.913 49.3191 159.469 49.7031 158.869 49.9911C158.269 50.2911 157.501 50.4411 156.565 50.4411C155.293 50.4411 154.267 50.2011 153.487 49.7211C152.707 49.2531 152.317 48.5451 152.317 47.5971C152.317 46.7931 152.707 46.0971 153.487 45.5091C153.247 45.4011 153.037 45.2871 152.857 45.1671C152.689 45.0471 152.539 44.9211 152.407 44.7891V44.3751L153.973 42.7191C153.277 42.1071 152.929 41.3211 152.929 40.3611C152.929 39.7611 153.073 39.2151 153.361 38.7231C153.661 38.2311 154.081 37.8411 154.621 37.5531C155.161 37.2651 155.815 37.1211 156.583 37.1211C157.087 37.1211 157.555 37.1931 157.987 37.3371H161.371V38.7411L159.841 38.8491C160.081 39.3051 160.201 39.8091 160.201 40.3611C160.201 40.9611 160.057 41.5071 159.769 41.9991C159.481 42.4911 159.061 42.8811 158.509 43.1691C157.969 43.4571 157.327 43.6011 156.583 43.6011ZM156.583 41.8371C157.051 41.8371 157.435 41.7111 157.735 41.4591C158.047 41.2071 158.203 40.8471 158.203 40.3791C158.203 39.9111 158.047 39.5511 157.735 39.2991C157.435 39.0471 157.051 38.9211 156.583 38.9211C156.091 38.9211 155.695 39.0471 155.395 39.2991C155.095 39.5511 154.945 39.9111 154.945 40.3791C154.945 40.8471 155.095 41.2071 155.395 41.4591C155.695 41.7111 156.091 41.8371 156.583 41.8371ZM154.423 47.3631C154.423 47.8071 154.627 48.1371 155.035 48.3531C155.455 48.5811 155.965 48.6951 156.565 48.6951C157.141 48.6951 157.609 48.5751 157.969 48.3351C158.329 48.1071 158.509 47.7951 158.509 47.3991C158.509 47.0751 158.389 46.8051 158.149 46.5891C157.921 46.3731 157.459 46.2411 156.763 46.1931C156.271 46.1571 155.815 46.1031 155.395 46.0311C155.047 46.2231 154.795 46.4331 154.639 46.6611C154.495 46.8891 154.423 47.1231 154.423 47.3631ZM166.984 46.4811C166.12 46.4811 165.34 46.2831 164.644 45.8871C163.96 45.4911 163.414 44.9451 163.006 44.2491C162.61 43.5411 162.412 42.7251 162.412 41.8011C162.412 40.8771 162.616 40.0671 163.024 39.3711C163.432 38.6631 163.978 38.1111 164.662 37.7151C165.358 37.3191 166.138 37.1211 167.002 37.1211C167.854 37.1211 168.622 37.3191 169.306 37.7151C170.002 38.1111 170.548 38.6631 170.944 39.3711C171.352 40.0671 171.556 40.8771 171.556 41.8011C171.556 42.7251 171.352 43.5411 170.944 44.2491C170.548 44.9451 170.002 45.4911 169.306 45.8871C168.61 46.2831 167.836 46.4811 166.984 46.4811ZM166.984 44.4831C167.584 44.4831 168.106 44.2611 168.55 43.8171C168.994 43.3611 169.216 42.6891 169.216 41.8011C169.216 40.9131 168.994 40.2471 168.55 39.8031C168.106 39.3471 167.59 39.1191 167.002 39.1191C166.39 39.1191 165.862 39.3471 165.418 39.8031C164.986 40.2471 164.77 40.9131 164.77 41.8011C164.77 42.6891 164.986 43.3611 165.418 43.8171C165.862 44.2611 166.384 44.4831 166.984 44.4831Z" fill="#FEFFFF"/>
<path d="M325 40H285V80H325V40Z" fill="#F8777A"/>
<path d="M285 40C284.937 28.9453 276.02 20 264.999 20C253.977 20 245.058 28.9453 245 40H285Z" fill="#4C3778"/>
<path d="M245 0C245.058 11.0574 253.98 20 264.999 20C276.017 20 284.937 11.0574 285 0H245Z" fill="#4C3778"/>
<path d="M299 15H287L299 27V15Z" fill="#68F4A0"/>
<path d="M312 15H300L312 27V15Z" fill="#68F4A0"/>
<g clip-path="url(#clip1_1990_38240)">
<path d="M267.361 40.4585H266.731L276.957 50.6397V50.0127L267.361 40.4585Z" fill="#FDC748"/>
<path d="M277.011 59.8582L257.654 40.582H257.023L277.011 60.4852V59.8582Z" fill="#FDC748"/>
<path d="M277.011 54.9964L262.536 40.582H261.905L277.011 55.6251V54.9964Z" fill="#FDC748"/>
<path d="M277.011 64.7183L252.772 40.582H252.142L277.011 65.347V64.7183Z" fill="#FDC748"/>
<path d="M277.011 69.5802L247.891 40.582H247.26L277.011 70.2072V69.5802Z" fill="#FDC748"/>
<path d="M277.011 74.4403L243.009 40.582H242.378L277.011 75.0673V74.4403Z" fill="#FDC748"/>
<path d="M277.011 79.6122V79.3004L238.127 40.582H237.81V40.8938L276.694 79.6122H277.011Z" fill="#FDC748"/>
<path d="M272.442 79.6125L237.81 45.1272V45.7542L271.812 79.6125H272.442Z" fill="#FDC748"/>
<path d="M267.561 79.6124L237.81 49.989V50.616L266.93 79.6124H267.561Z" fill="#FDC748"/>
<path d="M262.679 79.6122L237.81 54.8489V55.4759L262.049 79.6122H262.679Z" fill="#FDC748"/>
<path d="M257.797 79.6124L237.81 59.7109V60.3362L257.167 79.6124H257.797Z" fill="#FDC748"/>
<path d="M252.916 79.6124L237.81 64.571V65.1981L252.287 79.6124H252.916Z" fill="#FDC748"/>
<path d="M248.034 79.6124L237.81 69.4312V70.0582L247.406 79.6124H248.034Z" fill="#FDC748"/>
</g>
</g>
<defs>
<clipPath id="clip0_1990_38240">
<rect width="325" height="80" rx="10" fill="white"/>
</clipPath>
<clipPath id="clip1_1990_38240">
<rect width="22" height="41" fill="white" transform="translate(245 40)"/>
</clipPath>
</defs>
</svg>
