<svg width="333" height="149" viewBox="0 0 333 149" fill="none" xmlns="http://www.w3.org/2000/svg">
<g filter="url(#filter0_d_2814_39522)">
<rect x="4" y="2.61523" width="325" height="140" rx="12" fill="#4C3778"/>
</g>
<mask id="mask0_2814_39522" style="mask-type:alpha" maskUnits="userSpaceOnUse" x="4" y="2" width="325" height="141">
<rect x="4" y="2.61523" width="325" height="140" rx="12" fill="#4C3778"/>
</mask>
<g mask="url(#mask0_2814_39522)">
<path d="M269.268 73.0967H198.958V143.406H269.268V73.0967Z" fill="#50357C"/>
<path d="M339.573 73.0454H269.264V143.355H339.573V73.0454Z" fill="#F8777A"/>
<path d="M269.231 73.0362C269.12 53.9574 253.463 38.519 234.111 38.519C214.759 38.519 199.098 53.9574 198.996 73.0362H269.231Z" fill="#8AFFB9"/>
<path d="M198.996 2.51318C199.098 21.5966 214.763 37.0304 234.111 37.0304C253.459 37.0304 269.12 21.5966 269.231 2.51318H198.996Z" fill="#8AFFB9"/>
</g>
<g clip-path="url(#clip0_2814_39522)">
<path d="M238.64 72.8164H237.522L255.651 90.9439V89.8275L238.64 72.8164Z" fill="#FDC748"/>
<path d="M255.747 107.358L221.431 73.0366H220.314L255.747 108.474V107.358Z" fill="#FDC748"/>
<path d="M255.747 98.7012L230.085 73.0366H228.968L255.747 99.8206V98.7012Z" fill="#FDC748"/>
<path d="M255.747 116.011L212.777 73.0366H211.66L255.747 117.13V116.011Z" fill="#FDC748"/>
<path d="M255.747 124.667L204.124 73.0366H203.006L255.747 125.784V124.667Z" fill="#FDC748"/>
<path d="M255.747 133.321L195.47 73.0366H194.353L255.747 134.437V133.321Z" fill="#FDC748"/>
<path d="M255.747 142.529V141.974L186.816 73.0366H186.253V73.5918L255.184 142.529H255.747Z" fill="#FDC748"/>
<path d="M247.647 142.53L186.253 81.1289V82.2453L246.53 142.53H247.647Z" fill="#FDC748"/>
<path d="M238.993 142.53L186.253 89.7856V90.902L237.876 142.53H238.993Z" fill="#FDC748"/>
<path d="M230.34 142.529L186.253 98.4385V99.5549L229.222 142.529H230.34Z" fill="#FDC748"/>
<path d="M221.686 142.53L186.253 107.095V108.209L220.568 142.53H221.686Z" fill="#FDC748"/>
<path d="M213.032 142.529L186.253 115.749V116.865L211.918 142.529H213.032Z" fill="#FDC748"/>
<path d="M204.378 142.529L186.253 124.402V125.518L203.264 142.529H204.378Z" fill="#FDC748"/>
</g>
<path d="M29.732 60.8312C28.544 60.8312 27.506 60.5612 26.618 60.0212C25.73 59.4812 25.04 58.7312 24.548 57.7712C24.056 56.7992 23.81 55.6712 23.81 54.3872C23.81 53.0912 24.062 51.9512 24.566 50.9672C25.082 49.9712 25.808 49.1972 26.744 48.6452C27.692 48.0812 28.814 47.7992 30.11 47.7992C31.586 47.7992 32.81 48.1532 33.782 48.8612C34.754 49.5692 35.384 50.5472 35.672 51.7952H33.098C32.906 51.2072 32.558 50.7512 32.054 50.4272C31.55 50.0912 30.902 49.9232 30.11 49.9232C28.85 49.9232 27.878 50.3252 27.194 51.1292C26.51 51.9212 26.168 53.0132 26.168 54.4052C26.168 55.7972 26.504 56.8772 27.176 57.6452C27.86 58.4012 28.784 58.7792 29.948 58.7792C31.088 58.7792 31.946 58.4732 32.522 57.8612C33.11 57.2372 33.464 56.4212 33.584 55.4132H30.398V53.6852H35.906V60.6152H33.782L33.602 58.9592C33.194 59.5592 32.684 60.0212 32.072 60.3452C31.46 60.6692 30.68 60.8312 29.732 60.8312ZM41.1699 60.8312C40.4019 60.8312 39.7719 60.7112 39.2799 60.4712C38.7879 60.2192 38.4219 59.8892 38.1819 59.4812C37.9419 59.0732 37.8219 58.6232 37.8219 58.1312C37.8219 57.3032 38.1459 56.6312 38.7939 56.1152C39.4419 55.5992 40.4139 55.3412 41.7099 55.3412H43.9779V55.1252C43.9779 54.5132 43.8039 54.0632 43.4559 53.7752C43.1079 53.4872 42.6759 53.3432 42.1599 53.3432C41.6919 53.3432 41.2839 53.4572 40.9359 53.6852C40.5879 53.9012 40.3719 54.2252 40.2879 54.6572H38.0379C38.0979 54.0092 38.3139 53.4452 38.6859 52.9652C39.0699 52.4852 39.5619 52.1192 40.1619 51.8672C40.7619 51.6032 41.4339 51.4712 42.1779 51.4712C43.4499 51.4712 44.4519 51.7892 45.1839 52.4252C45.9159 53.0612 46.2819 53.9612 46.2819 55.1252V60.6152H44.3199L44.1039 59.1752C43.8399 59.6552 43.4679 60.0512 42.9879 60.3632C42.5199 60.6752 41.9139 60.8312 41.1699 60.8312ZM41.6919 59.0312C42.3519 59.0312 42.8619 58.8152 43.2219 58.3832C43.5939 57.9512 43.8279 57.4172 43.9239 56.7812H41.9619C41.3499 56.7812 40.9119 56.8952 40.6479 57.1232C40.3839 57.3392 40.2519 57.6092 40.2519 57.9332C40.2519 58.2812 40.3839 58.5512 40.6479 58.7432C40.9119 58.9352 41.2599 59.0312 41.6919 59.0312ZM48.4805 60.6152V51.6872H50.5145L50.6945 53.1992C50.9705 52.6712 51.3665 52.2512 51.8825 51.9392C52.4105 51.6272 53.0285 51.4712 53.7365 51.4712C54.8405 51.4712 55.6985 51.8192 56.3105 52.5152C56.9225 53.2112 57.2285 54.2312 57.2285 55.5752V60.6152H54.9245V55.7912C54.9245 55.0232 54.7685 54.4352 54.4565 54.0272C54.1445 53.6192 53.6585 53.4152 52.9985 53.4152C52.3505 53.4152 51.8165 53.6432 51.3965 54.0992C50.9885 54.5552 50.7845 55.1912 50.7845 56.0072V60.6152H48.4805ZM59.4317 60.6152V47.6552H61.7357V53.0552C62.0357 52.5632 62.4377 52.1792 62.9417 51.9032C63.4577 51.6152 64.0457 51.4712 64.7057 51.4712C65.8097 51.4712 66.6617 51.8192 67.2617 52.5152C67.8737 53.2112 68.1797 54.2312 68.1797 55.5752V60.6152H65.8937V55.7912C65.8937 55.0232 65.7377 54.4352 65.4257 54.0272C65.1257 53.6192 64.6457 53.4152 63.9857 53.4152C63.3377 53.4152 62.7977 53.6432 62.3657 54.0992C61.9457 54.5552 61.7357 55.1912 61.7357 56.0072V60.6152H59.4317ZM74.7209 60.8312C73.8209 60.8312 73.0229 60.6392 72.3269 60.2552C71.6309 59.8712 71.0849 59.3312 70.6889 58.6352C70.2929 57.9392 70.0949 57.1352 70.0949 56.2232C70.0949 55.2992 70.2869 54.4772 70.6709 53.7572C71.0669 53.0372 71.6069 52.4792 72.2909 52.0832C72.9869 51.6752 73.8029 51.4712 74.7389 51.4712C75.6149 51.4712 76.3889 51.6632 77.0609 52.0472C77.7329 52.4312 78.2549 52.9592 78.6269 53.6312C79.0109 54.2912 79.2029 55.0292 79.2029 55.8452C79.2029 55.9772 79.1969 56.1152 79.1849 56.2592C79.1849 56.4032 79.1789 56.5532 79.1669 56.7092H72.3809C72.4289 57.4052 72.6689 57.9512 73.1009 58.3472C73.5449 58.7432 74.0789 58.9412 74.7029 58.9412C75.1709 58.9412 75.5609 58.8392 75.8729 58.6352C76.1969 58.4192 76.4369 58.1432 76.5929 57.8072H78.9329C78.7649 58.3712 78.4829 58.8872 78.0869 59.3552C77.7029 59.8112 77.2229 60.1712 76.6469 60.4352C76.0829 60.6992 75.4409 60.8312 74.7209 60.8312ZM74.7389 53.3432C74.1749 53.3432 73.6769 53.5052 73.2449 53.8292C72.8129 54.1412 72.5369 54.6212 72.4169 55.2692H76.8629C76.8269 54.6812 76.6109 54.2132 76.2149 53.8652C75.8189 53.5172 75.3269 53.3432 74.7389 53.3432ZM88.5078 60.8312C87.7398 60.8312 87.1098 60.7112 86.6178 60.4712C86.1258 60.2192 85.7598 59.8892 85.5198 59.4812C85.2798 59.0732 85.1598 58.6232 85.1598 58.1312C85.1598 57.3032 85.4838 56.6312 86.1318 56.1152C86.7798 55.5992 87.7518 55.3412 89.0478 55.3412H91.3158V55.1252C91.3158 54.5132 91.1418 54.0632 90.7938 53.7752C90.4458 53.4872 90.0138 53.3432 89.4978 53.3432C89.0298 53.3432 88.6218 53.4572 88.2738 53.6852C87.9258 53.9012 87.7098 54.2252 87.6258 54.6572H85.3758C85.4358 54.0092 85.6518 53.4452 86.0238 52.9652C86.4078 52.4852 86.8998 52.1192 87.4998 51.8672C88.0998 51.6032 88.7718 51.4712 89.5158 51.4712C90.7878 51.4712 91.7898 51.7892 92.5218 52.4252C93.2538 53.0612 93.6198 53.9612 93.6198 55.1252V60.6152H91.6578L91.4418 59.1752C91.1778 59.6552 90.8058 60.0512 90.3258 60.3632C89.8578 60.6752 89.2518 60.8312 88.5078 60.8312ZM89.0298 59.0312C89.6898 59.0312 90.1998 58.8152 90.5598 58.3832C90.9318 57.9512 91.1658 57.4172 91.2618 56.7812H89.2998C88.6878 56.7812 88.2498 56.8952 87.9858 57.1232C87.7218 57.3392 87.5898 57.6092 87.5898 57.9332C87.5898 58.2812 87.7218 58.5512 87.9858 58.7432C88.2498 58.9352 88.5978 59.0312 89.0298 59.0312ZM99.6734 60.6152C98.7374 60.6152 97.9874 60.3872 97.4234 59.9312C96.8594 59.4752 96.5774 58.6652 96.5774 57.5012V53.6132H95.0474V51.6872H96.5774L96.8474 49.2932H98.8814V51.6872H101.293V53.6132H98.8814V57.5192C98.8814 57.9512 98.9714 58.2512 99.1514 58.4192C99.3434 58.5752 99.6674 58.6532 100.123 58.6532H101.239V60.6152H99.6734ZM107.381 60.8312C106.481 60.8312 105.683 60.6392 104.987 60.2552C104.291 59.8712 103.745 59.3312 103.349 58.6352C102.953 57.9392 102.755 57.1352 102.755 56.2232C102.755 55.2992 102.947 54.4772 103.331 53.7572C103.727 53.0372 104.267 52.4792 104.951 52.0832C105.647 51.6752 106.463 51.4712 107.399 51.4712C108.275 51.4712 109.049 51.6632 109.721 52.0472C110.393 52.4312 110.915 52.9592 111.287 53.6312C111.671 54.2912 111.863 55.0292 111.863 55.8452C111.863 55.9772 111.857 56.1152 111.845 56.2592C111.845 56.4032 111.839 56.5532 111.827 56.7092H105.041C105.089 57.4052 105.329 57.9512 105.761 58.3472C106.205 58.7432 106.739 58.9412 107.363 58.9412C107.831 58.9412 108.221 58.8392 108.533 58.6352C108.857 58.4192 109.097 58.1432 109.253 57.8072H111.593C111.425 58.3712 111.143 58.8872 110.747 59.3552C110.363 59.8112 109.883 60.1712 109.307 60.4352C108.743 60.6992 108.101 60.8312 107.381 60.8312ZM107.399 53.3432C106.835 53.3432 106.337 53.5052 105.905 53.8292C105.473 54.1412 105.197 54.6212 105.077 55.2692H109.523C109.487 54.6812 109.271 54.2132 108.875 53.8652C108.479 53.5172 107.987 53.3432 107.399 53.3432ZM106.751 50.9672V49.3472L110.819 47.1512V49.0232L106.751 50.9672ZM108.844 83.6152V74.6872H110.878L111.058 76.1992C111.334 75.6712 111.73 75.2512 112.246 74.9392C112.774 74.6272 113.392 74.4712 114.1 74.4712C115.204 74.4712 116.062 74.8192 116.674 75.5152C117.286 76.2112 117.592 77.2312 117.592 78.5752V83.6152H115.288V78.7912C115.288 78.0232 115.132 77.4352 114.82 77.0272C114.508 76.6192 114.022 76.4152 113.362 76.4152C112.714 76.4152 112.18 76.6432 111.76 77.0992C111.352 77.5552 111.148 78.1912 111.148 79.0072V83.6152H108.844ZM123.143 83.8312C122.027 83.8312 121.163 83.4832 120.551 82.7872C119.951 82.0912 119.651 81.0712 119.651 79.7272V74.6872H121.937V79.5112C121.937 80.2792 122.093 80.8672 122.405 81.2752C122.717 81.6832 123.209 81.8872 123.881 81.8872C124.517 81.8872 125.039 81.6592 125.447 81.2032C125.867 80.7472 126.077 80.1112 126.077 79.2952V74.6872H128.381V83.6152H126.347L126.167 82.1032C125.891 82.6312 125.489 83.0512 124.961 83.3632C124.445 83.6752 123.839 83.8312 123.143 83.8312ZM130.746 83.6152V74.6872H132.78L132.978 75.8932C133.266 75.4612 133.644 75.1192 134.112 74.8672C134.592 74.6032 135.144 74.4712 135.768 74.4712C137.148 74.4712 138.126 75.0052 138.702 76.0732C139.026 75.5812 139.458 75.1912 139.998 74.9032C140.55 74.6152 141.15 74.4712 141.798 74.4712C142.962 74.4712 143.856 74.8192 144.48 75.5152C145.104 76.2112 145.416 77.2312 145.416 78.5752V83.6152H143.112V78.7912C143.112 78.0232 142.962 77.4352 142.662 77.0272C142.374 76.6192 141.924 76.4152 141.312 76.4152C140.688 76.4152 140.184 76.6432 139.8 77.0992C139.428 77.5552 139.242 78.1912 139.242 79.0072V83.6152H136.938V78.7912C136.938 78.0232 136.788 77.4352 136.488 77.0272C136.188 76.6192 135.726 76.4152 135.102 76.4152C134.49 76.4152 133.992 76.6432 133.608 77.0992C133.236 77.5552 133.05 78.1912 133.05 79.0072V83.6152H130.746ZM150.682 83.8312C149.914 83.8312 149.284 83.7112 148.792 83.4712C148.3 83.2192 147.934 82.8892 147.694 82.4812C147.454 82.0732 147.334 81.6232 147.334 81.1312C147.334 80.3032 147.658 79.6312 148.306 79.1152C148.954 78.5992 149.926 78.3412 151.222 78.3412H153.49V78.1252C153.49 77.5132 153.316 77.0632 152.968 76.7752C152.62 76.4872 152.188 76.3432 151.672 76.3432C151.204 76.3432 150.796 76.4572 150.448 76.6852C150.1 76.9012 149.884 77.2252 149.8 77.6572H147.55C147.61 77.0092 147.826 76.4452 148.198 75.9652C148.582 75.4852 149.074 75.1192 149.674 74.8672C150.274 74.6032 150.946 74.4712 151.69 74.4712C152.962 74.4712 153.964 74.7892 154.696 75.4252C155.428 76.0612 155.794 76.9612 155.794 78.1252V83.6152H153.832L153.616 82.1752C153.352 82.6552 152.98 83.0512 152.5 83.3632C152.032 83.6752 151.426 83.8312 150.682 83.8312ZM151.204 82.0312C151.864 82.0312 152.374 81.8152 152.734 81.3832C153.106 80.9512 153.34 80.4172 153.436 79.7812H151.474C150.862 79.7812 150.424 79.8952 150.16 80.1232C149.896 80.3392 149.764 80.6092 149.764 80.9332C149.764 81.2812 149.896 81.5512 150.16 81.7432C150.424 81.9352 150.772 82.0312 151.204 82.0312ZM27.86 106.831C27.068 106.831 26.372 106.705 25.772 106.453C25.172 106.189 24.692 105.829 24.332 105.373C23.972 104.917 23.756 104.389 23.684 103.789H26.006C26.078 104.137 26.27 104.437 26.582 104.689C26.906 104.929 27.32 105.049 27.824 105.049C28.328 105.049 28.694 104.947 28.922 104.743C29.162 104.539 29.282 104.305 29.282 104.041C29.282 103.657 29.114 103.399 28.778 103.267C28.442 103.123 27.974 102.985 27.374 102.853C26.99 102.769 26.6 102.667 26.204 102.547C25.808 102.427 25.442 102.277 25.106 102.097C24.782 101.905 24.518 101.665 24.314 101.377C24.11 101.077 24.008 100.711 24.008 100.279C24.008 99.4872 24.32 98.8212 24.944 98.2812C25.58 97.7412 26.468 97.4712 27.608 97.4712C28.664 97.4712 29.504 97.7172 30.128 98.2092C30.764 98.7012 31.142 99.3792 31.262 100.243H29.084C28.952 99.5832 28.454 99.2532 27.59 99.2532C27.158 99.2532 26.822 99.3372 26.582 99.5052C26.354 99.6732 26.24 99.8832 26.24 100.135C26.24 100.399 26.414 100.609 26.762 100.765C27.11 100.921 27.572 101.065 28.148 101.197C28.772 101.341 29.342 101.503 29.858 101.683C30.386 101.851 30.806 102.109 31.118 102.457C31.43 102.793 31.586 103.279 31.586 103.915C31.598 104.467 31.454 104.965 31.154 105.409C30.854 105.853 30.422 106.201 29.858 106.453C29.294 106.705 28.628 106.831 27.86 106.831ZM37.911 106.831C37.047 106.831 36.267 106.633 35.571 106.237C34.887 105.841 34.341 105.295 33.933 104.599C33.537 103.891 33.339 103.075 33.339 102.151C33.339 101.227 33.543 100.417 33.951 99.7212C34.359 99.0132 34.905 98.4612 35.589 98.0652C36.285 97.6692 37.065 97.4712 37.929 97.4712C38.781 97.4712 39.549 97.6692 40.233 98.0652C40.929 98.4612 41.475 99.0132 41.871 99.7212C42.279 100.417 42.483 101.227 42.483 102.151C42.483 103.075 42.279 103.891 41.871 104.599C41.475 105.295 40.929 105.841 40.233 106.237C39.537 106.633 38.763 106.831 37.911 106.831ZM37.911 104.833C38.511 104.833 39.033 104.611 39.477 104.167C39.921 103.711 40.143 103.039 40.143 102.151C40.143 101.263 39.921 100.597 39.477 100.153C39.033 99.6972 38.517 99.4692 37.929 99.4692C37.317 99.4692 36.789 99.6972 36.345 100.153C35.913 100.597 35.697 101.263 35.697 102.151C35.697 103.039 35.913 103.711 36.345 104.167C36.789 104.611 37.311 104.833 37.911 104.833ZM37.317 96.9672V95.3472L41.385 93.1512V95.0232L37.317 96.9672ZM50.0741 96.3012C49.6541 96.3012 49.3061 96.1752 49.0301 95.9232C48.7661 95.6712 48.6341 95.3532 48.6341 94.9692C48.6341 94.5852 48.7661 94.2732 49.0301 94.0332C49.3061 93.7812 49.6541 93.6552 50.0741 93.6552C50.4941 93.6552 50.8361 93.7812 51.1001 94.0332C51.3761 94.2732 51.5141 94.5852 51.5141 94.9692C51.5141 95.3532 51.3761 95.6712 51.1001 95.9232C50.8361 96.1752 50.4941 96.3012 50.0741 96.3012ZM48.9221 106.615V97.6872H51.2261V106.615H48.9221ZM53.6309 106.615V97.6872H55.6649L55.8449 99.1992C56.1209 98.6712 56.5169 98.2512 57.0329 97.9392C57.5609 97.6272 58.1789 97.4712 58.8869 97.4712C59.9909 97.4712 60.8489 97.8192 61.4609 98.5152C62.0729 99.2112 62.3789 100.231 62.3789 101.575V106.615H60.0749V101.791C60.0749 101.023 59.9189 100.435 59.6069 100.027C59.2949 99.6192 58.8089 99.4152 58.1489 99.4152C57.5009 99.4152 56.9669 99.6432 56.5469 100.099C56.1389 100.555 55.9349 101.191 55.9349 102.007V106.615H53.6309ZM68.6861 106.831C67.8461 106.831 67.0961 106.627 66.4361 106.219C65.7761 105.811 65.2541 105.253 64.8701 104.545C64.4861 103.837 64.2941 103.033 64.2941 102.133C64.2941 101.233 64.4861 100.435 64.8701 99.7392C65.2541 99.0312 65.7761 98.4792 66.4361 98.0832C67.0961 97.6752 67.8461 97.4712 68.6861 97.4712C69.3581 97.4712 69.9461 97.5972 70.4501 97.8492C70.9541 98.1012 71.3621 98.4552 71.6741 98.9112V93.6552H73.9781V106.615H71.9261L71.6741 105.337C71.3861 105.733 71.0021 106.081 70.5221 106.381C70.0541 106.681 69.4421 106.831 68.6861 106.831ZM69.1721 104.815C69.9161 104.815 70.5221 104.569 70.9901 104.077C71.4701 103.573 71.7101 102.931 71.7101 102.151C71.7101 101.371 71.4701 100.735 70.9901 100.243C70.5221 99.7392 69.9161 99.4872 69.1721 99.4872C68.4401 99.4872 67.8341 99.7332 67.3541 100.225C66.8741 100.717 66.6341 101.353 66.6341 102.133C66.6341 102.913 66.8741 103.555 67.3541 104.059C67.8341 104.563 68.4401 104.815 69.1721 104.815ZM77.5663 96.3012C77.1463 96.3012 76.7983 96.1752 76.5223 95.9232C76.2583 95.6712 76.1263 95.3532 76.1263 94.9692C76.1263 94.5852 76.2583 94.2732 76.5223 94.0332C76.7983 93.7812 77.1463 93.6552 77.5663 93.6552C77.9863 93.6552 78.3283 93.7812 78.5923 94.0332C78.8683 94.2732 79.0063 94.5852 79.0063 94.9692C79.0063 95.3532 78.8683 95.6712 78.5923 95.9232C78.3283 96.1752 77.9863 96.3012 77.5663 96.3012ZM76.4143 106.615V97.6872H78.7183V106.615H76.4143ZM85.4971 106.831C84.5851 106.831 83.7811 106.633 83.0851 106.237C82.3891 105.841 81.8371 105.289 81.4291 104.581C81.0331 103.873 80.8351 103.063 80.8351 102.151C80.8351 101.239 81.0331 100.429 81.4291 99.7212C81.8371 99.0132 82.3891 98.4612 83.0851 98.0652C83.7811 97.6692 84.5851 97.4712 85.4971 97.4712C86.6371 97.4712 87.5971 97.7712 88.3771 98.3712C89.1571 98.9592 89.6551 99.7752 89.8711 100.819H87.4411C87.3211 100.387 87.0811 100.051 86.7211 99.8112C86.3731 99.5592 85.9591 99.4332 85.4791 99.4332C84.8431 99.4332 84.3031 99.6732 83.8591 100.153C83.4151 100.633 83.1931 101.299 83.1931 102.151C83.1931 103.003 83.4151 103.669 83.8591 104.149C84.3031 104.629 84.8431 104.869 85.4791 104.869C85.9591 104.869 86.3731 104.749 86.7211 104.509C87.0811 104.269 87.3211 103.927 87.4411 103.483H89.8711C89.6551 104.491 89.1571 105.301 88.3771 105.913C87.5971 106.525 86.6371 106.831 85.4971 106.831ZM94.9941 106.831C94.2261 106.831 93.5961 106.711 93.1041 106.471C92.6121 106.219 92.2461 105.889 92.0061 105.481C91.7661 105.073 91.6461 104.623 91.6461 104.131C91.6461 103.303 91.9701 102.631 92.6181 102.115C93.2661 101.599 94.2381 101.341 95.5341 101.341H97.8021V101.125C97.8021 100.513 97.6281 100.063 97.2801 99.7752C96.9321 99.4872 96.5001 99.3432 95.9841 99.3432C95.5161 99.3432 95.1081 99.4572 94.7601 99.6852C94.4121 99.9012 94.1961 100.225 94.1121 100.657H91.8621C91.9221 100.009 92.1381 99.4452 92.5101 98.9652C92.8941 98.4852 93.3861 98.1192 93.9861 97.8672C94.5861 97.6032 95.2581 97.4712 96.0021 97.4712C97.2741 97.4712 98.2761 97.7892 99.0081 98.4252C99.7401 99.0612 100.106 99.9612 100.106 101.125V106.615H98.1441L97.9281 105.175C97.6641 105.655 97.2921 106.051 96.8121 106.363C96.3441 106.675 95.7381 106.831 94.9941 106.831ZM95.5161 105.031C96.1761 105.031 96.6861 104.815 97.0461 104.383C97.4181 103.951 97.6521 103.417 97.7481 102.781H95.7861C95.1741 102.781 94.7361 102.895 94.4721 103.123C94.2081 103.339 94.0761 103.609 94.0761 103.933C94.0761 104.281 94.2081 104.551 94.4721 104.743C94.7361 104.935 95.0841 105.031 95.5161 105.031ZM106.679 106.831C105.767 106.831 104.963 106.633 104.267 106.237C103.571 105.841 103.019 105.289 102.611 104.581C102.215 103.873 102.017 103.063 102.017 102.151C102.017 101.239 102.215 100.429 102.611 99.7212C103.019 99.0132 103.571 98.4612 104.267 98.0652C104.963 97.6692 105.767 97.4712 106.679 97.4712C107.819 97.4712 108.779 97.7712 109.559 98.3712C110.339 98.9592 110.837 99.7752 111.053 100.819H108.623C108.503 100.387 108.263 100.051 107.903 99.8112C107.555 99.5592 107.141 99.4332 106.661 99.4332C106.025 99.4332 105.485 99.6732 105.041 100.153C104.597 100.633 104.375 101.299 104.375 102.151C104.375 103.003 104.597 103.669 105.041 104.149C105.485 104.629 106.025 104.869 106.661 104.869C107.141 104.869 107.555 104.749 107.903 104.509C108.263 104.269 108.503 103.927 108.623 103.483H111.053C110.837 104.491 110.339 105.301 109.559 105.913C108.779 106.525 107.819 106.831 106.679 106.831ZM105.059 111.403V110.071H107.075C107.711 110.071 108.029 109.855 108.029 109.423C108.029 109.003 107.711 108.793 107.075 108.793H105.977V106.543H107.417V107.569C107.825 107.557 108.203 107.617 108.551 107.749C108.911 107.881 109.199 108.085 109.415 108.361C109.643 108.649 109.757 109.015 109.757 109.459C109.757 110.107 109.523 110.593 109.055 110.917C108.587 111.241 108.041 111.403 107.417 111.403H105.059ZM116.176 106.831C115.408 106.831 114.778 106.711 114.286 106.471C113.794 106.219 113.428 105.889 113.188 105.481C112.948 105.073 112.828 104.623 112.828 104.131C112.828 103.303 113.152 102.631 113.8 102.115C114.448 101.599 115.42 101.341 116.716 101.341H118.984V101.125C118.984 100.513 118.81 100.063 118.462 99.7752C118.114 99.4872 117.682 99.3432 117.166 99.3432C116.698 99.3432 116.29 99.4572 115.942 99.6852C115.594 99.9012 115.378 100.225 115.294 100.657H113.044C113.104 100.009 113.32 99.4452 113.692 98.9652C114.076 98.4852 114.568 98.1192 115.168 97.8672C115.768 97.6032 116.44 97.4712 117.184 97.4712C118.456 97.4712 119.458 97.7892 120.19 98.4252C120.922 99.0612 121.288 99.9612 121.288 101.125V106.615H119.326L119.11 105.175C118.846 105.655 118.474 106.051 117.994 106.363C117.526 106.675 116.92 106.831 116.176 106.831ZM116.698 105.031C117.358 105.031 117.868 104.815 118.228 104.383C118.6 103.951 118.834 103.417 118.93 102.781H116.968C116.356 102.781 115.918 102.895 115.654 103.123C115.39 103.339 115.258 103.609 115.258 103.933C115.258 104.281 115.39 104.551 115.654 104.743C115.918 104.935 116.266 105.031 116.698 105.031ZM118.192 96.7512C117.856 96.7512 117.568 96.6852 117.328 96.5532C117.088 96.4092 116.866 96.2712 116.662 96.1392C116.458 95.9952 116.236 95.9232 115.996 95.9232C115.552 95.9232 115.288 96.1932 115.204 96.7332H113.98C114.1 95.9652 114.34 95.4012 114.7 95.0412C115.072 94.6812 115.534 94.5012 116.086 94.5012C116.422 94.5012 116.71 94.5732 116.95 94.7172C117.19 94.8492 117.412 94.9872 117.616 95.1312C117.82 95.2632 118.048 95.3292 118.3 95.3292C118.504 95.3292 118.672 95.2632 118.804 95.1312C118.948 94.9992 119.038 94.7952 119.074 94.5192H120.316C120.196 95.2872 119.95 95.8512 119.578 96.2112C119.206 96.5712 118.744 96.7512 118.192 96.7512ZM127.77 106.831C126.906 106.831 126.126 106.633 125.43 106.237C124.746 105.841 124.2 105.295 123.792 104.599C123.396 103.891 123.198 103.075 123.198 102.151C123.198 101.227 123.402 100.417 123.81 99.7212C124.218 99.0132 124.764 98.4612 125.448 98.0652C126.144 97.6692 126.924 97.4712 127.788 97.4712C128.64 97.4712 129.408 97.6692 130.092 98.0652C130.788 98.4612 131.334 99.0132 131.73 99.7212C132.138 100.417 132.342 101.227 132.342 102.151C132.342 103.075 132.138 103.891 131.73 104.599C131.334 105.295 130.788 105.841 130.092 106.237C129.396 106.633 128.622 106.831 127.77 106.831ZM127.77 104.833C128.37 104.833 128.892 104.611 129.336 104.167C129.78 103.711 130.002 103.039 130.002 102.151C130.002 101.263 129.78 100.597 129.336 100.153C128.892 99.6972 128.376 99.4692 127.788 99.4692C127.176 99.4692 126.648 99.6972 126.204 100.153C125.772 100.597 125.556 101.263 125.556 102.151C125.556 103.039 125.772 103.711 126.204 104.167C126.648 104.611 127.17 104.833 127.77 104.833Z" fill="#FEFFFF"/>
<path d="M24.224 83.6152V71.0152H28.85C29.858 71.0152 30.686 71.1892 31.334 71.5372C31.994 71.8732 32.486 72.3352 32.81 72.9232C33.134 73.4992 33.296 74.1412 33.296 74.8492C33.296 75.6172 33.092 76.3192 32.684 76.9552C32.288 77.5912 31.664 78.0532 30.812 78.3412L33.422 83.6152H30.776L28.436 78.6472H26.528V83.6152H24.224ZM26.528 76.9552H28.706C29.474 76.9552 30.038 76.7692 30.398 76.3972C30.758 76.0252 30.938 75.5332 30.938 74.9212C30.938 74.3212 30.758 73.8412 30.398 73.4812C30.05 73.1212 29.48 72.9412 28.688 72.9412H26.528V76.9552ZM38.9668 85.1812V83.7952C37.8028 83.6632 36.8548 83.2552 36.1228 82.5712C35.3908 81.8872 35.0128 80.9692 34.9888 79.8172H37.4188C37.4428 80.2972 37.5868 80.7172 37.8508 81.0772C38.1268 81.4372 38.4988 81.6832 38.9668 81.8152V78.0172C38.8588 77.9812 38.7448 77.9452 38.6248 77.9092C38.5168 77.8732 38.4028 77.8372 38.2828 77.8012C37.3108 77.4652 36.5668 77.0332 36.0508 76.5052C35.5468 75.9772 35.2948 75.2752 35.2948 74.3992C35.2828 73.3672 35.6188 72.5392 36.3028 71.9152C36.9868 71.2792 37.8748 70.9132 38.9668 70.8172V69.3592H40.1728V70.8352C41.2528 70.9432 42.1228 71.3212 42.7828 71.9692C43.4548 72.6052 43.8088 73.4272 43.8448 74.4352H41.3788C41.3668 74.0872 41.2528 73.7692 41.0368 73.4812C40.8328 73.1812 40.5448 72.9712 40.1728 72.8512V76.1992C40.2688 76.2352 40.3648 76.2712 40.4608 76.3072C40.5568 76.3312 40.6528 76.3612 40.7488 76.3972C41.3728 76.6132 41.9428 76.8652 42.4588 77.1532C42.9748 77.4412 43.3888 77.8252 43.7008 78.3052C44.0128 78.7732 44.1688 79.3792 44.1688 80.1232C44.1688 80.7472 44.0128 81.3292 43.7008 81.8692C43.4008 82.4092 42.9508 82.8592 42.3508 83.2192C41.7628 83.5672 41.0368 83.7652 40.1728 83.8132V85.1812H38.9668ZM37.7068 74.2372C37.7068 74.6212 37.8208 74.9332 38.0488 75.1732C38.2768 75.4012 38.5828 75.5992 38.9668 75.7672V72.7792C38.5948 72.8512 38.2888 73.0132 38.0488 73.2652C37.8208 73.5172 37.7068 73.8412 37.7068 74.2372ZM41.7208 80.2852C41.7208 79.8052 41.5768 79.4272 41.2888 79.1512C41.0008 78.8752 40.6288 78.6412 40.1728 78.4492V81.8692C40.6528 81.7972 41.0308 81.6232 41.3068 81.3472C41.5828 81.0712 41.7208 80.7172 41.7208 80.2852ZM47.5471 83.6152V73.6432L45.4771 74.1292V72.3652L48.5191 71.0152H49.9411V83.6152H47.5471ZM52.0782 83.6152V81.9412C52.8462 81.3052 53.5902 80.6752 54.3102 80.0512C55.0422 79.4272 55.6902 78.8092 56.2542 78.1972C56.8302 77.5852 57.2862 76.9912 57.6222 76.4152C57.9702 75.8272 58.1442 75.2572 58.1442 74.7052C58.1442 74.1892 58.0002 73.7332 57.7122 73.3372C57.4362 72.9412 56.9742 72.7432 56.3262 72.7432C55.6662 72.7432 55.1682 72.9592 54.8322 73.3912C54.4962 73.8232 54.3282 74.3452 54.3282 74.9572H52.0962C52.1202 74.0332 52.3242 73.2652 52.7082 72.6532C53.0922 72.0292 53.6022 71.5672 54.2382 71.2672C54.8742 70.9552 55.5882 70.7992 56.3802 70.7992C57.6642 70.7992 58.6602 71.1532 59.3682 71.8612C60.0882 72.5572 60.4482 73.4632 60.4482 74.5792C60.4482 75.2752 60.2862 75.9532 59.9622 76.6132C59.6502 77.2732 59.2362 77.9092 58.7202 78.5212C58.2042 79.1332 57.6462 79.7092 57.0462 80.2492C56.4462 80.7772 55.8642 81.2692 55.3002 81.7252H60.7542V83.6152H52.0782ZM63.6034 83.7412C63.1834 83.7412 62.8354 83.6092 62.5594 83.3452C62.2954 83.0812 62.1634 82.7632 62.1634 82.3912C62.1634 82.0072 62.2954 81.6832 62.5594 81.4192C62.8354 81.1552 63.1834 81.0232 63.6034 81.0232C64.0234 81.0232 64.3654 81.1552 64.6294 81.4192C64.9054 81.6832 65.0434 82.0072 65.0434 82.3912C65.0434 82.7632 64.9054 83.0812 64.6294 83.3452C64.3654 83.6092 64.0234 83.7412 63.6034 83.7412ZM71.4369 83.8312C70.2729 83.8312 69.2769 83.5612 68.4489 83.0212C67.6209 82.4692 66.9789 81.7072 66.5229 80.7352C66.0789 79.7512 65.8569 78.6112 65.8569 77.3152C65.8569 76.0312 66.0789 74.8972 66.5229 73.9132C66.9789 72.9292 67.6209 72.1672 68.4489 71.6272C69.2769 71.0752 70.2729 70.7992 71.4369 70.7992C72.6009 70.7992 73.5969 71.0752 74.4249 71.6272C75.2529 72.1672 75.8889 72.9292 76.3329 73.9132C76.7889 74.8972 77.0169 76.0312 77.0169 77.3152C77.0169 78.6112 76.7889 79.7512 76.3329 80.7352C75.8889 81.7072 75.2529 82.4692 74.4249 83.0212C73.5969 83.5612 72.6009 83.8312 71.4369 83.8312ZM71.4369 81.7612C72.3849 81.7612 73.1589 81.3652 73.7589 80.5732C74.3589 79.7812 74.6589 78.6952 74.6589 77.3152C74.6589 75.9352 74.3589 74.8492 73.7589 74.0572C73.1589 73.2652 72.3849 72.8692 71.4369 72.8692C70.4769 72.8692 69.6969 73.2652 69.0969 74.0572C68.5089 74.8492 68.2149 75.9352 68.2149 77.3152C68.2149 78.6952 68.5089 79.7812 69.0969 80.5732C69.6969 81.3652 70.4769 81.7612 71.4369 81.7612ZM84.2162 83.8312C83.0522 83.8312 82.0562 83.5612 81.2282 83.0212C80.4002 82.4692 79.7582 81.7072 79.3022 80.7352C78.8582 79.7512 78.6362 78.6112 78.6362 77.3152C78.6362 76.0312 78.8582 74.8972 79.3022 73.9132C79.7582 72.9292 80.4002 72.1672 81.2282 71.6272C82.0562 71.0752 83.0522 70.7992 84.2162 70.7992C85.3802 70.7992 86.3762 71.0752 87.2042 71.6272C88.0322 72.1672 88.6682 72.9292 89.1122 73.9132C89.5682 74.8972 89.7962 76.0312 89.7962 77.3152C89.7962 78.6112 89.5682 79.7512 89.1122 80.7352C88.6682 81.7072 88.0322 82.4692 87.2042 83.0212C86.3762 83.5612 85.3802 83.8312 84.2162 83.8312ZM84.2162 81.7612C85.1642 81.7612 85.9382 81.3652 86.5382 80.5732C87.1382 79.7812 87.4382 78.6952 87.4382 77.3152C87.4382 75.9352 87.1382 74.8492 86.5382 74.0572C85.9382 73.2652 85.1642 72.8692 84.2162 72.8692C83.2562 72.8692 82.4762 73.2652 81.8762 74.0572C81.2882 74.8492 80.9942 75.9352 80.9942 77.3152C80.9942 78.6952 81.2882 79.7812 81.8762 80.5732C82.4762 81.3652 83.2562 81.7612 84.2162 81.7612ZM96.9955 83.8312C95.8315 83.8312 94.8355 83.5612 94.0075 83.0212C93.1795 82.4692 92.5375 81.7072 92.0815 80.7352C91.6375 79.7512 91.4155 78.6112 91.4155 77.3152C91.4155 76.0312 91.6375 74.8972 92.0815 73.9132C92.5375 72.9292 93.1795 72.1672 94.0075 71.6272C94.8355 71.0752 95.8315 70.7992 96.9955 70.7992C98.1595 70.7992 99.1555 71.0752 99.9835 71.6272C100.811 72.1672 101.447 72.9292 101.891 73.9132C102.347 74.8972 102.575 76.0312 102.575 77.3152C102.575 78.6112 102.347 79.7512 101.891 80.7352C101.447 81.7072 100.811 82.4692 99.9835 83.0212C99.1555 83.5612 98.1595 83.8312 96.9955 83.8312ZM96.9955 81.7612C97.9435 81.7612 98.7175 81.3652 99.3175 80.5732C99.9175 79.7812 100.217 78.6952 100.217 77.3152C100.217 75.9352 99.9175 74.8492 99.3175 74.0572C98.7175 73.2652 97.9435 72.8692 96.9955 72.8692C96.0355 72.8692 95.2555 73.2652 94.6555 74.0572C94.0675 74.8492 93.7735 75.9352 93.7735 77.3152C93.7735 78.6952 94.0675 79.7812 94.6555 80.5732C95.2555 81.3652 96.0355 81.7612 96.9955 81.7612Z" fill="#68F4A0"/>
<path d="M293.946 28.2642H273.091L293.946 49.2642V28.2642Z" fill="#B05DFB"/>
<path d="M316.08 28.2642H295.232L316.08 49.2642V28.2642Z" fill="#B05DFB"/>
<defs>
<filter id="filter0_d_2814_39522" x="0" y="0.615234" width="333" height="148" filterUnits="userSpaceOnUse" color-interpolation-filters="sRGB">
<feFlood flood-opacity="0" result="BackgroundImageFix"/>
<feColorMatrix in="SourceAlpha" type="matrix" values="0 0 0 0 0 0 0 0 0 0 0 0 0 0 0 0 0 0 127 0" result="hardAlpha"/>
<feOffset dy="2"/>
<feGaussianBlur stdDeviation="2"/>
<feColorMatrix type="matrix" values="0 0 0 0 0.305882 0 0 0 0 0.337255 0 0 0 0 0.54902 0 0 0 0.06 0"/>
<feBlend mode="normal" in2="BackgroundImageFix" result="effect1_dropShadow_2814_39522"/>
<feBlend mode="normal" in="SourceGraphic" in2="effect1_dropShadow_2814_39522" result="shape"/>
</filter>
<clipPath id="clip0_2814_39522">
<rect width="39" height="73" fill="white" transform="translate(199 72)"/>
</clipPath>
</defs>
</svg>
