<svg width="329" height="143" viewBox="0 0 329 143" fill="none" xmlns="http://www.w3.org/2000/svg">
<rect y="0.615234" width="325" height="140" rx="12" fill="#4C3778"/>
<mask id="mask0_2838_31727" style="mask-type:alpha" maskUnits="userSpaceOnUse" x="0" y="0" width="325" height="141">
<rect y="0.615234" width="325" height="140" rx="12" fill="#4C3778"/>
</mask>
<g mask="url(#mask0_2838_31727)">
<path d="M265.268 71.0967H194.958V141.406H265.268V71.0967Z" fill="#50357C"/>
<path d="M335.573 71.0454H265.264V141.355H335.573V71.0454Z" fill="#F8777A"/>
<path d="M265.231 71.0362C265.12 51.9574 249.463 36.519 230.111 36.519C210.759 36.519 195.098 51.9574 194.996 71.0362H265.231Z" fill="#8AFFB9"/>
<path d="M194.996 0.513184C195.098 19.5966 210.763 35.0304 230.111 35.0304C249.459 35.0304 265.12 19.5966 265.231 0.513184H194.996Z" fill="#8AFFB9"/>
</g>
<g clip-path="url(#clip0_2838_31727)">
<path d="M234.64 70.8164H233.523L251.651 88.9439V87.8275L234.64 70.8164Z" fill="#FDC748"/>
<path d="M251.747 105.358L217.431 71.0366H216.314L251.747 106.474V105.358Z" fill="#FDC748"/>
<path d="M251.747 96.7012L226.085 71.0366H224.968L251.747 97.8206V96.7012Z" fill="#FDC748"/>
<path d="M251.747 114.011L208.777 71.0366H207.66L251.747 115.13V114.011Z" fill="#FDC748"/>
<path d="M251.747 122.667L200.124 71.0366H199.006L251.747 123.784V122.667Z" fill="#FDC748"/>
<path d="M251.747 131.321L191.47 71.0366H190.353L251.747 132.437V131.321Z" fill="#FDC748"/>
<path d="M251.747 140.529V139.974L182.816 71.0366H182.253V71.5918L251.184 140.529H251.747Z" fill="#FDC748"/>
<path d="M243.647 140.53L182.253 79.1289V80.2453L242.53 140.53H243.647Z" fill="#FDC748"/>
<path d="M234.993 140.53L182.253 87.7856V88.902L233.876 140.53H234.993Z" fill="#FDC748"/>
<path d="M226.34 140.529L182.253 96.4385V97.5549L225.222 140.529H226.34Z" fill="#FDC748"/>
<path d="M217.686 140.53L182.253 105.095V106.209L216.568 140.53H217.686Z" fill="#FDC748"/>
<path d="M209.032 140.529L182.253 113.749V114.865L207.918 140.529H209.032Z" fill="#FDC748"/>
<path d="M200.378 140.529L182.253 122.402V123.518L199.264 140.529H200.378Z" fill="#FDC748"/>
</g>
<path d="M25.732 58.8312C24.544 58.8312 23.506 58.5612 22.618 58.0212C21.73 57.4812 21.04 56.7312 20.548 55.7712C20.056 54.7992 19.81 53.6712 19.81 52.3872C19.81 51.0912 20.062 49.9512 20.566 48.9672C21.082 47.9712 21.808 47.1972 22.744 46.6452C23.692 46.0812 24.814 45.7992 26.11 45.7992C27.586 45.7992 28.81 46.1532 29.782 46.8612C30.754 47.5692 31.384 48.5472 31.672 49.7952H29.098C28.906 49.2072 28.558 48.7512 28.054 48.4272C27.55 48.0912 26.902 47.9232 26.11 47.9232C24.85 47.9232 23.878 48.3252 23.194 49.1292C22.51 49.9212 22.168 51.0132 22.168 52.4052C22.168 53.7972 22.504 54.8772 23.176 55.6452C23.86 56.4012 24.784 56.7792 25.948 56.7792C27.088 56.7792 27.946 56.4732 28.522 55.8612C29.11 55.2372 29.464 54.4212 29.584 53.4132H26.398V51.6852H31.906V58.6152H29.782L29.602 56.9592C29.194 57.5592 28.684 58.0212 28.072 58.3452C27.46 58.6692 26.68 58.8312 25.732 58.8312ZM37.1699 58.8312C36.4019 58.8312 35.7719 58.7112 35.2799 58.4712C34.7879 58.2192 34.4219 57.8892 34.1819 57.4812C33.9419 57.0732 33.8219 56.6232 33.8219 56.1312C33.8219 55.3032 34.1459 54.6312 34.7939 54.1152C35.4419 53.5992 36.4139 53.3412 37.7099 53.3412H39.9779V53.1252C39.9779 52.5132 39.8039 52.0632 39.4559 51.7752C39.1079 51.4872 38.6759 51.3432 38.1599 51.3432C37.6919 51.3432 37.2839 51.4572 36.9359 51.6852C36.5879 51.9012 36.3719 52.2252 36.2879 52.6572H34.0379C34.0979 52.0092 34.3139 51.4452 34.6859 50.9652C35.0699 50.4852 35.5619 50.1192 36.1619 49.8672C36.7619 49.6032 37.4339 49.4712 38.1779 49.4712C39.4499 49.4712 40.4519 49.7892 41.1839 50.4252C41.9159 51.0612 42.2819 51.9612 42.2819 53.1252V58.6152H40.3199L40.1039 57.1752C39.8399 57.6552 39.4679 58.0512 38.9879 58.3632C38.5199 58.6752 37.9139 58.8312 37.1699 58.8312ZM37.6919 57.0312C38.3519 57.0312 38.8619 56.8152 39.2219 56.3832C39.5939 55.9512 39.8279 55.4172 39.9239 54.7812H37.9619C37.3499 54.7812 36.9119 54.8952 36.6479 55.1232C36.3839 55.3392 36.2519 55.6092 36.2519 55.9332C36.2519 56.2812 36.3839 56.5512 36.6479 56.7432C36.9119 56.9352 37.2599 57.0312 37.6919 57.0312ZM44.4805 58.6152V49.6872H46.5145L46.6945 51.1992C46.9705 50.6712 47.3665 50.2512 47.8825 49.9392C48.4105 49.6272 49.0285 49.4712 49.7365 49.4712C50.8405 49.4712 51.6985 49.8192 52.3105 50.5152C52.9225 51.2112 53.2285 52.2312 53.2285 53.5752V58.6152H50.9245V53.7912C50.9245 53.0232 50.7685 52.4352 50.4565 52.0272C50.1445 51.6192 49.6585 51.4152 48.9985 51.4152C48.3505 51.4152 47.8165 51.6432 47.3965 52.0992C46.9885 52.5552 46.7845 53.1912 46.7845 54.0072V58.6152H44.4805ZM55.4317 58.6152V45.6552H57.7357V51.0552C58.0357 50.5632 58.4377 50.1792 58.9417 49.9032C59.4577 49.6152 60.0457 49.4712 60.7057 49.4712C61.8097 49.4712 62.6617 49.8192 63.2617 50.5152C63.8737 51.2112 64.1797 52.2312 64.1797 53.5752V58.6152H61.8937V53.7912C61.8937 53.0232 61.7377 52.4352 61.4257 52.0272C61.1257 51.6192 60.6457 51.4152 59.9857 51.4152C59.3377 51.4152 58.7977 51.6432 58.3657 52.0992C57.9457 52.5552 57.7357 53.1912 57.7357 54.0072V58.6152H55.4317ZM70.7209 58.8312C69.8209 58.8312 69.0229 58.6392 68.3269 58.2552C67.6309 57.8712 67.0849 57.3312 66.6889 56.6352C66.2929 55.9392 66.0949 55.1352 66.0949 54.2232C66.0949 53.2992 66.2869 52.4772 66.6709 51.7572C67.0669 51.0372 67.6069 50.4792 68.2909 50.0832C68.9869 49.6752 69.8029 49.4712 70.7389 49.4712C71.6149 49.4712 72.3889 49.6632 73.0609 50.0472C73.7329 50.4312 74.2549 50.9592 74.6269 51.6312C75.0109 52.2912 75.2029 53.0292 75.2029 53.8452C75.2029 53.9772 75.1969 54.1152 75.1849 54.2592C75.1849 54.4032 75.1789 54.5532 75.1669 54.7092H68.3809C68.4289 55.4052 68.6689 55.9512 69.1009 56.3472C69.5449 56.7432 70.0789 56.9412 70.7029 56.9412C71.1709 56.9412 71.5609 56.8392 71.8729 56.6352C72.1969 56.4192 72.4369 56.1432 72.5929 55.8072H74.9329C74.7649 56.3712 74.4829 56.8872 74.0869 57.3552C73.7029 57.8112 73.2229 58.1712 72.6469 58.4352C72.0829 58.6992 71.4409 58.8312 70.7209 58.8312ZM70.7389 51.3432C70.1749 51.3432 69.6769 51.5052 69.2449 51.8292C68.8129 52.1412 68.5369 52.6212 68.4169 53.2692H72.8629C72.8269 52.6812 72.6109 52.2132 72.2149 51.8652C71.8189 51.5172 71.3269 51.3432 70.7389 51.3432ZM84.5078 58.8312C83.7398 58.8312 83.1098 58.7112 82.6178 58.4712C82.1258 58.2192 81.7598 57.8892 81.5198 57.4812C81.2798 57.0732 81.1598 56.6232 81.1598 56.1312C81.1598 55.3032 81.4838 54.6312 82.1318 54.1152C82.7798 53.5992 83.7518 53.3412 85.0478 53.3412H87.3158V53.1252C87.3158 52.5132 87.1418 52.0632 86.7938 51.7752C86.4458 51.4872 86.0138 51.3432 85.4978 51.3432C85.0298 51.3432 84.6218 51.4572 84.2738 51.6852C83.9258 51.9012 83.7098 52.2252 83.6258 52.6572H81.3758C81.4358 52.0092 81.6518 51.4452 82.0238 50.9652C82.4078 50.4852 82.8998 50.1192 83.4998 49.8672C84.0998 49.6032 84.7718 49.4712 85.5158 49.4712C86.7878 49.4712 87.7898 49.7892 88.5218 50.4252C89.2538 51.0612 89.6198 51.9612 89.6198 53.1252V58.6152H87.6578L87.4418 57.1752C87.1778 57.6552 86.8058 58.0512 86.3258 58.3632C85.8578 58.6752 85.2518 58.8312 84.5078 58.8312ZM85.0298 57.0312C85.6898 57.0312 86.1998 56.8152 86.5598 56.3832C86.9318 55.9512 87.1658 55.4172 87.2618 54.7812H85.2998C84.6878 54.7812 84.2498 54.8952 83.9858 55.1232C83.7218 55.3392 83.5898 55.6092 83.5898 55.9332C83.5898 56.2812 83.7218 56.5512 83.9858 56.7432C84.2498 56.9352 84.5978 57.0312 85.0298 57.0312ZM95.6734 58.6152C94.7374 58.6152 93.9874 58.3872 93.4234 57.9312C92.8594 57.4752 92.5774 56.6652 92.5774 55.5012V51.6132H91.0474V49.6872H92.5774L92.8474 47.2932H94.8814V49.6872H97.2934V51.6132H94.8814V55.5192C94.8814 55.9512 94.9714 56.2512 95.1514 56.4192C95.3434 56.5752 95.6674 56.6532 96.1234 56.6532H97.2394V58.6152H95.6734ZM103.381 58.8312C102.481 58.8312 101.683 58.6392 100.987 58.2552C100.291 57.8712 99.745 57.3312 99.349 56.6352C98.953 55.9392 98.755 55.1352 98.755 54.2232C98.755 53.2992 98.947 52.4772 99.331 51.7572C99.727 51.0372 100.267 50.4792 100.951 50.0832C101.647 49.6752 102.463 49.4712 103.399 49.4712C104.275 49.4712 105.049 49.6632 105.721 50.0472C106.393 50.4312 106.915 50.9592 107.287 51.6312C107.671 52.2912 107.863 53.0292 107.863 53.8452C107.863 53.9772 107.857 54.1152 107.845 54.2592C107.845 54.4032 107.839 54.5532 107.827 54.7092H101.041C101.089 55.4052 101.329 55.9512 101.761 56.3472C102.205 56.7432 102.739 56.9412 103.363 56.9412C103.831 56.9412 104.221 56.8392 104.533 56.6352C104.857 56.4192 105.097 56.1432 105.253 55.8072H107.593C107.425 56.3712 107.143 56.8872 106.747 57.3552C106.363 57.8112 105.883 58.1712 105.307 58.4352C104.743 58.6992 104.101 58.8312 103.381 58.8312ZM103.399 51.3432C102.835 51.3432 102.337 51.5052 101.905 51.8292C101.473 52.1412 101.197 52.6212 101.077 53.2692H105.523C105.487 52.6812 105.271 52.2132 104.875 51.8652C104.479 51.5172 103.987 51.3432 103.399 51.3432ZM102.751 48.9672V47.3472L106.819 45.1512V47.0232L102.751 48.9672ZM110.258 81.6152V72.6872H112.292L112.472 74.1992C112.748 73.6712 113.144 73.2512 113.66 72.9392C114.188 72.6272 114.806 72.4712 115.514 72.4712C116.618 72.4712 117.476 72.8192 118.088 73.5152C118.7 74.2112 119.006 75.2312 119.006 76.5752V81.6152H116.702V76.7912C116.702 76.0232 116.546 75.4352 116.234 75.0272C115.922 74.6192 115.436 74.4152 114.776 74.4152C114.128 74.4152 113.594 74.6432 113.174 75.0992C112.766 75.5552 112.562 76.1912 112.562 77.0072V81.6152H110.258ZM124.557 81.8312C123.441 81.8312 122.577 81.4832 121.965 80.7872C121.365 80.0912 121.065 79.0712 121.065 77.7272V72.6872H123.351V77.5112C123.351 78.2792 123.507 78.8672 123.819 79.2752C124.131 79.6832 124.623 79.8872 125.295 79.8872C125.931 79.8872 126.453 79.6592 126.861 79.2032C127.281 78.7472 127.491 78.1112 127.491 77.2952V72.6872H129.795V81.6152H127.761L127.581 80.1032C127.305 80.6312 126.903 81.0512 126.375 81.3632C125.859 81.6752 125.253 81.8312 124.557 81.8312ZM132.16 81.6152V72.6872H134.194L134.392 73.8932C134.68 73.4612 135.058 73.1192 135.526 72.8672C136.006 72.6032 136.558 72.4712 137.182 72.4712C138.562 72.4712 139.54 73.0052 140.116 74.0732C140.44 73.5812 140.872 73.1912 141.412 72.9032C141.964 72.6152 142.564 72.4712 143.212 72.4712C144.376 72.4712 145.27 72.8192 145.894 73.5152C146.518 74.2112 146.83 75.2312 146.83 76.5752V81.6152H144.526V76.7912C144.526 76.0232 144.376 75.4352 144.076 75.0272C143.788 74.6192 143.338 74.4152 142.726 74.4152C142.102 74.4152 141.598 74.6432 141.214 75.0992C140.842 75.5552 140.656 76.1912 140.656 77.0072V81.6152H138.352V76.7912C138.352 76.0232 138.202 75.4352 137.902 75.0272C137.602 74.6192 137.14 74.4152 136.516 74.4152C135.904 74.4152 135.406 74.6432 135.022 75.0992C134.65 75.5552 134.464 76.1912 134.464 77.0072V81.6152H132.16ZM152.096 81.8312C151.328 81.8312 150.698 81.7112 150.206 81.4712C149.714 81.2192 149.348 80.8892 149.108 80.4812C148.868 80.0732 148.748 79.6232 148.748 79.1312C148.748 78.3032 149.072 77.6312 149.72 77.1152C150.368 76.5992 151.34 76.3412 152.636 76.3412H154.904V76.1252C154.904 75.5132 154.73 75.0632 154.382 74.7752C154.034 74.4872 153.602 74.3432 153.086 74.3432C152.618 74.3432 152.21 74.4572 151.862 74.6852C151.514 74.9012 151.298 75.2252 151.214 75.6572H148.964C149.024 75.0092 149.24 74.4452 149.612 73.9652C149.996 73.4852 150.488 73.1192 151.088 72.8672C151.688 72.6032 152.36 72.4712 153.104 72.4712C154.376 72.4712 155.378 72.7892 156.11 73.4252C156.842 74.0612 157.208 74.9612 157.208 76.1252V81.6152H155.246L155.03 80.1752C154.766 80.6552 154.394 81.0512 153.914 81.3632C153.446 81.6752 152.84 81.8312 152.096 81.8312ZM152.618 80.0312C153.278 80.0312 153.788 79.8152 154.148 79.3832C154.52 78.9512 154.754 78.4172 154.85 77.7812H152.888C152.276 77.7812 151.838 77.8952 151.574 78.1232C151.31 78.3392 151.178 78.6092 151.178 78.9332C151.178 79.2812 151.31 79.5512 151.574 79.7432C151.838 79.9352 152.186 80.0312 152.618 80.0312ZM23.86 104.831C23.068 104.831 22.372 104.705 21.772 104.453C21.172 104.189 20.692 103.829 20.332 103.373C19.972 102.917 19.756 102.389 19.684 101.789H22.006C22.078 102.137 22.27 102.437 22.582 102.689C22.906 102.929 23.32 103.049 23.824 103.049C24.328 103.049 24.694 102.947 24.922 102.743C25.162 102.539 25.282 102.305 25.282 102.041C25.282 101.657 25.114 101.399 24.778 101.267C24.442 101.123 23.974 100.985 23.374 100.853C22.99 100.769 22.6 100.667 22.204 100.547C21.808 100.427 21.442 100.277 21.106 100.097C20.782 99.9052 20.518 99.6652 20.314 99.3772C20.11 99.0772 20.008 98.7112 20.008 98.2792C20.008 97.4872 20.32 96.8212 20.944 96.2812C21.58 95.7412 22.468 95.4712 23.608 95.4712C24.664 95.4712 25.504 95.7172 26.128 96.2092C26.764 96.7012 27.142 97.3792 27.262 98.2432H25.084C24.952 97.5832 24.454 97.2532 23.59 97.2532C23.158 97.2532 22.822 97.3372 22.582 97.5052C22.354 97.6732 22.24 97.8832 22.24 98.1352C22.24 98.3992 22.414 98.6092 22.762 98.7652C23.11 98.9212 23.572 99.0652 24.148 99.1972C24.772 99.3412 25.342 99.5032 25.858 99.6832C26.386 99.8512 26.806 100.109 27.118 100.457C27.43 100.793 27.586 101.279 27.586 101.915C27.598 102.467 27.454 102.965 27.154 103.409C26.854 103.853 26.422 104.201 25.858 104.453C25.294 104.705 24.628 104.831 23.86 104.831ZM33.911 104.831C33.047 104.831 32.267 104.633 31.571 104.237C30.887 103.841 30.341 103.295 29.933 102.599C29.537 101.891 29.339 101.075 29.339 100.151C29.339 99.2272 29.543 98.4172 29.951 97.7212C30.359 97.0132 30.905 96.4612 31.589 96.0652C32.285 95.6692 33.065 95.4712 33.929 95.4712C34.781 95.4712 35.549 95.6692 36.233 96.0652C36.929 96.4612 37.475 97.0132 37.871 97.7212C38.279 98.4172 38.483 99.2272 38.483 100.151C38.483 101.075 38.279 101.891 37.871 102.599C37.475 103.295 36.929 103.841 36.233 104.237C35.537 104.633 34.763 104.831 33.911 104.831ZM33.911 102.833C34.511 102.833 35.033 102.611 35.477 102.167C35.921 101.711 36.143 101.039 36.143 100.151C36.143 99.2632 35.921 98.5972 35.477 98.1532C35.033 97.6972 34.517 97.4692 33.929 97.4692C33.317 97.4692 32.789 97.6972 32.345 98.1532C31.913 98.5972 31.697 99.2632 31.697 100.151C31.697 101.039 31.913 101.711 32.345 102.167C32.789 102.611 33.311 102.833 33.911 102.833ZM33.317 94.9672V93.3472L37.385 91.1512V93.0232L33.317 94.9672ZM46.0741 94.3012C45.6541 94.3012 45.3061 94.1752 45.0301 93.9232C44.7661 93.6712 44.6341 93.3532 44.6341 92.9692C44.6341 92.5852 44.7661 92.2732 45.0301 92.0332C45.3061 91.7812 45.6541 91.6552 46.0741 91.6552C46.4941 91.6552 46.8361 91.7812 47.1001 92.0332C47.3761 92.2732 47.5141 92.5852 47.5141 92.9692C47.5141 93.3532 47.3761 93.6712 47.1001 93.9232C46.8361 94.1752 46.4941 94.3012 46.0741 94.3012ZM44.9221 104.615V95.6872H47.2261V104.615H44.9221ZM49.6309 104.615V95.6872H51.6649L51.8449 97.1992C52.1209 96.6712 52.5169 96.2512 53.0329 95.9392C53.5609 95.6272 54.1789 95.4712 54.8869 95.4712C55.9909 95.4712 56.8489 95.8192 57.4609 96.5152C58.0729 97.2112 58.3789 98.2312 58.3789 99.5752V104.615H56.0749V99.7912C56.0749 99.0232 55.9189 98.4352 55.6069 98.0272C55.2949 97.6192 54.8089 97.4152 54.1489 97.4152C53.5009 97.4152 52.9669 97.6432 52.5469 98.0992C52.1389 98.5552 51.9349 99.1912 51.9349 100.007V104.615H49.6309ZM64.6861 104.831C63.8461 104.831 63.0961 104.627 62.4361 104.219C61.7761 103.811 61.2541 103.253 60.8701 102.545C60.4861 101.837 60.2941 101.033 60.2941 100.133C60.2941 99.2332 60.4861 98.4352 60.8701 97.7392C61.2541 97.0312 61.7761 96.4792 62.4361 96.0832C63.0961 95.6752 63.8461 95.4712 64.6861 95.4712C65.3581 95.4712 65.9461 95.5972 66.4501 95.8492C66.9541 96.1012 67.3621 96.4552 67.6741 96.9112V91.6552H69.9781V104.615H67.9261L67.6741 103.337C67.3861 103.733 67.0021 104.081 66.5221 104.381C66.0541 104.681 65.4421 104.831 64.6861 104.831ZM65.1721 102.815C65.9161 102.815 66.5221 102.569 66.9901 102.077C67.4701 101.573 67.7101 100.931 67.7101 100.151C67.7101 99.3712 67.4701 98.7352 66.9901 98.2432C66.5221 97.7392 65.9161 97.4872 65.1721 97.4872C64.4401 97.4872 63.8341 97.7332 63.3541 98.2252C62.8741 98.7172 62.6341 99.3532 62.6341 100.133C62.6341 100.913 62.8741 101.555 63.3541 102.059C63.8341 102.563 64.4401 102.815 65.1721 102.815ZM73.5663 94.3012C73.1463 94.3012 72.7983 94.1752 72.5223 93.9232C72.2583 93.6712 72.1263 93.3532 72.1263 92.9692C72.1263 92.5852 72.2583 92.2732 72.5223 92.0332C72.7983 91.7812 73.1463 91.6552 73.5663 91.6552C73.9863 91.6552 74.3283 91.7812 74.5923 92.0332C74.8683 92.2732 75.0063 92.5852 75.0063 92.9692C75.0063 93.3532 74.8683 93.6712 74.5923 93.9232C74.3283 94.1752 73.9863 94.3012 73.5663 94.3012ZM72.4143 104.615V95.6872H74.7183V104.615H72.4143ZM81.4971 104.831C80.5851 104.831 79.7811 104.633 79.0851 104.237C78.3891 103.841 77.8371 103.289 77.4291 102.581C77.0331 101.873 76.8351 101.063 76.8351 100.151C76.8351 99.2392 77.0331 98.4292 77.4291 97.7212C77.8371 97.0132 78.3891 96.4612 79.0851 96.0652C79.7811 95.6692 80.5851 95.4712 81.4971 95.4712C82.6371 95.4712 83.5971 95.7712 84.3771 96.3712C85.1571 96.9592 85.6551 97.7752 85.8711 98.8192H83.4411C83.3211 98.3872 83.0811 98.0512 82.7211 97.8112C82.3731 97.5592 81.9591 97.4332 81.4791 97.4332C80.8431 97.4332 80.3031 97.6732 79.8591 98.1532C79.4151 98.6332 79.1931 99.2992 79.1931 100.151C79.1931 101.003 79.4151 101.669 79.8591 102.149C80.3031 102.629 80.8431 102.869 81.4791 102.869C81.9591 102.869 82.3731 102.749 82.7211 102.509C83.0811 102.269 83.3211 101.927 83.4411 101.483H85.8711C85.6551 102.491 85.1571 103.301 84.3771 103.913C83.5971 104.525 82.6371 104.831 81.4971 104.831ZM90.9941 104.831C90.2261 104.831 89.5961 104.711 89.1041 104.471C88.6121 104.219 88.2461 103.889 88.0061 103.481C87.7661 103.073 87.6461 102.623 87.6461 102.131C87.6461 101.303 87.9701 100.631 88.6181 100.115C89.2661 99.5992 90.2381 99.3412 91.5341 99.3412H93.8021V99.1252C93.8021 98.5132 93.6281 98.0632 93.2801 97.7752C92.9321 97.4872 92.5001 97.3432 91.9841 97.3432C91.5161 97.3432 91.1081 97.4572 90.7601 97.6852C90.4121 97.9012 90.1961 98.2252 90.1121 98.6572H87.8621C87.9221 98.0092 88.1381 97.4452 88.5101 96.9652C88.8941 96.4852 89.3861 96.1192 89.9861 95.8672C90.5861 95.6032 91.2581 95.4712 92.0021 95.4712C93.2741 95.4712 94.2761 95.7892 95.0081 96.4252C95.7401 97.0612 96.1061 97.9612 96.1061 99.1252V104.615H94.1441L93.9281 103.175C93.6641 103.655 93.2921 104.051 92.8121 104.363C92.3441 104.675 91.7381 104.831 90.9941 104.831ZM91.5161 103.031C92.1761 103.031 92.6861 102.815 93.0461 102.383C93.4181 101.951 93.6521 101.417 93.7481 100.781H91.7861C91.1741 100.781 90.7361 100.895 90.4721 101.123C90.2081 101.339 90.0761 101.609 90.0761 101.933C90.0761 102.281 90.2081 102.551 90.4721 102.743C90.7361 102.935 91.0841 103.031 91.5161 103.031ZM102.679 104.831C101.767 104.831 100.963 104.633 100.267 104.237C99.5708 103.841 99.0188 103.289 98.6108 102.581C98.2148 101.873 98.0168 101.063 98.0168 100.151C98.0168 99.2392 98.2148 98.4292 98.6108 97.7212C99.0188 97.0132 99.5708 96.4612 100.267 96.0652C100.963 95.6692 101.767 95.4712 102.679 95.4712C103.819 95.4712 104.779 95.7712 105.559 96.3712C106.339 96.9592 106.837 97.7752 107.053 98.8192H104.623C104.503 98.3872 104.263 98.0512 103.903 97.8112C103.555 97.5592 103.141 97.4332 102.661 97.4332C102.025 97.4332 101.485 97.6732 101.041 98.1532C100.597 98.6332 100.375 99.2992 100.375 100.151C100.375 101.003 100.597 101.669 101.041 102.149C101.485 102.629 102.025 102.869 102.661 102.869C103.141 102.869 103.555 102.749 103.903 102.509C104.263 102.269 104.503 101.927 104.623 101.483H107.053C106.837 102.491 106.339 103.301 105.559 103.913C104.779 104.525 103.819 104.831 102.679 104.831ZM101.059 109.403V108.071H103.075C103.711 108.071 104.029 107.855 104.029 107.423C104.029 107.003 103.711 106.793 103.075 106.793H101.977V104.543H103.417V105.569C103.825 105.557 104.203 105.617 104.551 105.749C104.911 105.881 105.199 106.085 105.415 106.361C105.643 106.649 105.757 107.015 105.757 107.459C105.757 108.107 105.523 108.593 105.055 108.917C104.587 109.241 104.041 109.403 103.417 109.403H101.059ZM112.176 104.831C111.408 104.831 110.778 104.711 110.286 104.471C109.794 104.219 109.428 103.889 109.188 103.481C108.948 103.073 108.828 102.623 108.828 102.131C108.828 101.303 109.152 100.631 109.8 100.115C110.448 99.5992 111.42 99.3412 112.716 99.3412H114.984V99.1252C114.984 98.5132 114.81 98.0632 114.462 97.7752C114.114 97.4872 113.682 97.3432 113.166 97.3432C112.698 97.3432 112.29 97.4572 111.942 97.6852C111.594 97.9012 111.378 98.2252 111.294 98.6572H109.044C109.104 98.0092 109.32 97.4452 109.692 96.9652C110.076 96.4852 110.568 96.1192 111.168 95.8672C111.768 95.6032 112.44 95.4712 113.184 95.4712C114.456 95.4712 115.458 95.7892 116.19 96.4252C116.922 97.0612 117.288 97.9612 117.288 99.1252V104.615H115.326L115.11 103.175C114.846 103.655 114.474 104.051 113.994 104.363C113.526 104.675 112.92 104.831 112.176 104.831ZM112.698 103.031C113.358 103.031 113.868 102.815 114.228 102.383C114.6 101.951 114.834 101.417 114.93 100.781H112.968C112.356 100.781 111.918 100.895 111.654 101.123C111.39 101.339 111.258 101.609 111.258 101.933C111.258 102.281 111.39 102.551 111.654 102.743C111.918 102.935 112.266 103.031 112.698 103.031ZM114.192 94.7512C113.856 94.7512 113.568 94.6852 113.328 94.5532C113.088 94.4092 112.866 94.2712 112.662 94.1392C112.458 93.9952 112.236 93.9232 111.996 93.9232C111.552 93.9232 111.288 94.1932 111.204 94.7332H109.98C110.1 93.9652 110.34 93.4012 110.7 93.0412C111.072 92.6812 111.534 92.5012 112.086 92.5012C112.422 92.5012 112.71 92.5732 112.95 92.7172C113.19 92.8492 113.412 92.9872 113.616 93.1312C113.82 93.2632 114.048 93.3292 114.3 93.3292C114.504 93.3292 114.672 93.2632 114.804 93.1312C114.948 92.9992 115.038 92.7952 115.074 92.5192H116.316C116.196 93.2872 115.95 93.8512 115.578 94.2112C115.206 94.5712 114.744 94.7512 114.192 94.7512ZM123.77 104.831C122.906 104.831 122.126 104.633 121.43 104.237C120.746 103.841 120.2 103.295 119.792 102.599C119.396 101.891 119.198 101.075 119.198 100.151C119.198 99.2272 119.402 98.4172 119.81 97.7212C120.218 97.0132 120.764 96.4612 121.448 96.0652C122.144 95.6692 122.924 95.4712 123.788 95.4712C124.64 95.4712 125.408 95.6692 126.092 96.0652C126.788 96.4612 127.334 97.0132 127.73 97.7212C128.138 98.4172 128.342 99.2272 128.342 100.151C128.342 101.075 128.138 101.891 127.73 102.599C127.334 103.295 126.788 103.841 126.092 104.237C125.396 104.633 124.622 104.831 123.77 104.831ZM123.77 102.833C124.37 102.833 124.892 102.611 125.336 102.167C125.78 101.711 126.002 101.039 126.002 100.151C126.002 99.2632 125.78 98.5972 125.336 98.1532C124.892 97.6972 124.376 97.4692 123.788 97.4692C123.176 97.4692 122.648 97.6972 122.204 98.1532C121.772 98.5972 121.556 99.2632 121.556 100.151C121.556 101.039 121.772 101.711 122.204 102.167C122.648 102.611 123.17 102.833 123.77 102.833Z" fill="#FEFFFF"/>
<path d="M20.224 81.6152V69.0152H24.85C25.858 69.0152 26.686 69.1892 27.334 69.5372C27.994 69.8732 28.486 70.3352 28.81 70.9232C29.134 71.4992 29.296 72.1412 29.296 72.8492C29.296 73.6172 29.092 74.3192 28.684 74.9552C28.288 75.5912 27.664 76.0532 26.812 76.3412L29.422 81.6152H26.776L24.436 76.6472H22.528V81.6152H20.224ZM22.528 74.9552H24.706C25.474 74.9552 26.038 74.7692 26.398 74.3972C26.758 74.0252 26.938 73.5332 26.938 72.9212C26.938 72.3212 26.758 71.8412 26.398 71.4812C26.05 71.1212 25.48 70.9412 24.688 70.9412H22.528V74.9552ZM34.9668 83.1812V81.7952C33.8028 81.6632 32.8548 81.2552 32.1228 80.5712C31.3908 79.8872 31.0128 78.9692 30.9888 77.8172H33.4188C33.4428 78.2972 33.5868 78.7172 33.8508 79.0772C34.1268 79.4372 34.4988 79.6832 34.9668 79.8152V76.0172C34.8588 75.9812 34.7448 75.9452 34.6248 75.9092C34.5168 75.8732 34.4028 75.8372 34.2828 75.8012C33.3108 75.4652 32.5668 75.0332 32.0508 74.5052C31.5468 73.9772 31.2948 73.2752 31.2948 72.3992C31.2828 71.3672 31.6188 70.5392 32.3028 69.9152C32.9868 69.2792 33.8748 68.9132 34.9668 68.8172V67.3592H36.1728V68.8352C37.2528 68.9432 38.1228 69.3212 38.7828 69.9692C39.4548 70.6052 39.8088 71.4272 39.8448 72.4352H37.3788C37.3668 72.0872 37.2528 71.7692 37.0368 71.4812C36.8328 71.1812 36.5448 70.9712 36.1728 70.8512V74.1992C36.2688 74.2352 36.3648 74.2712 36.4608 74.3072C36.5568 74.3312 36.6528 74.3612 36.7488 74.3972C37.3728 74.6132 37.9428 74.8652 38.4588 75.1532C38.9748 75.4412 39.3888 75.8252 39.7008 76.3052C40.0128 76.7732 40.1688 77.3792 40.1688 78.1232C40.1688 78.7472 40.0128 79.3292 39.7008 79.8692C39.4008 80.4092 38.9508 80.8592 38.3508 81.2192C37.7628 81.5672 37.0368 81.7652 36.1728 81.8132V83.1812H34.9668ZM33.7068 72.2372C33.7068 72.6212 33.8208 72.9332 34.0488 73.1732C34.2768 73.4012 34.5828 73.5992 34.9668 73.7672V70.7792C34.5948 70.8512 34.2888 71.0132 34.0488 71.2652C33.8208 71.5172 33.7068 71.8412 33.7068 72.2372ZM37.7208 78.2852C37.7208 77.8052 37.5768 77.4272 37.2888 77.1512C37.0008 76.8752 36.6288 76.6412 36.1728 76.4492V79.8692C36.6528 79.7972 37.0308 79.6232 37.3068 79.3472C37.5828 79.0712 37.7208 78.7172 37.7208 78.2852ZM46.3011 81.8312C45.4731 81.8312 44.7231 81.6872 44.0511 81.3992C43.3791 81.0992 42.8391 80.6432 42.4311 80.0312C42.0231 79.4192 41.8071 78.6512 41.7831 77.7272H44.0511C44.0631 78.3392 44.2611 78.8552 44.6451 79.2752C45.0411 79.6832 45.5931 79.8872 46.3011 79.8872C46.9731 79.8872 47.4891 79.7012 47.8491 79.3292C48.2091 78.9572 48.3891 78.4892 48.3891 77.9252C48.3891 77.2652 48.1491 76.7672 47.6691 76.4312C47.2011 76.0832 46.5951 75.9092 45.8511 75.9092H44.9151V74.0192H45.8691C46.4811 74.0192 46.9911 73.8752 47.3991 73.5872C47.8071 73.2992 48.0111 72.8732 48.0111 72.3092C48.0111 71.8412 47.8551 71.4692 47.5431 71.1932C47.2431 70.9052 46.8231 70.7612 46.2831 70.7612C45.6951 70.7612 45.2331 70.9352 44.8971 71.2832C44.5731 71.6312 44.3931 72.0572 44.3571 72.5612H42.1071C42.1551 71.3972 42.5571 70.4792 43.3131 69.8072C44.0811 69.1352 45.0711 68.7992 46.2831 68.7992C47.1471 68.7992 47.8731 68.9552 48.4611 69.2672C49.0611 69.5672 49.5111 69.9692 49.8111 70.4732C50.1231 70.9772 50.2791 71.5352 50.2791 72.1472C50.2791 72.8552 50.0811 73.4552 49.6851 73.9472C49.3011 74.4272 48.8211 74.7512 48.2451 74.9192C48.9531 75.0632 49.5291 75.4112 49.9731 75.9632C50.4171 76.5032 50.6391 77.1872 50.6391 78.0152C50.6391 78.7112 50.4711 79.3472 50.1351 79.9232C49.7991 80.4992 49.3071 80.9612 48.6591 81.3092C48.0231 81.6572 47.2371 81.8312 46.3011 81.8312ZM57.4197 81.8312C56.4957 81.8312 55.6977 81.6692 55.0257 81.3452C54.3657 81.0212 53.8437 80.5772 53.4597 80.0132C53.0877 79.4372 52.8717 78.7892 52.8117 78.0692H55.0617C55.1697 78.5852 55.4337 79.0172 55.8537 79.3652C56.2737 79.7012 56.7957 79.8692 57.4197 79.8692C58.0917 79.8692 58.6377 79.6232 59.0577 79.1312C59.4897 78.6392 59.7057 78.0272 59.7057 77.2952C59.7057 76.5392 59.4897 75.9392 59.0577 75.4952C58.6377 75.0512 58.1037 74.8292 57.4557 74.8292C56.9157 74.8292 56.4477 74.9612 56.0517 75.2252C55.6557 75.4892 55.3737 75.8192 55.2057 76.2152H52.9917L54.0717 69.0152H61.0557V71.0312H55.7997L55.2237 73.9472C55.4877 73.6592 55.8477 73.4252 56.3037 73.2452C56.7597 73.0532 57.2697 72.9572 57.8337 72.9572C58.7337 72.9572 59.4837 73.1612 60.0837 73.5692C60.6837 73.9652 61.1397 74.4932 61.4517 75.1532C61.7637 75.8012 61.9197 76.5092 61.9197 77.2772C61.9197 78.1532 61.7277 78.9332 61.3437 79.6172C60.9717 80.3012 60.4437 80.8412 59.7597 81.2372C59.0877 81.6332 58.3077 81.8312 57.4197 81.8312ZM69.2298 81.8312C68.0658 81.8312 67.0698 81.5612 66.2418 81.0212C65.4138 80.4692 64.7718 79.7072 64.3158 78.7352C63.8718 77.7512 63.6498 76.6112 63.6498 75.3152C63.6498 74.0312 63.8718 72.8972 64.3158 71.9132C64.7718 70.9292 65.4138 70.1672 66.2418 69.6272C67.0698 69.0752 68.0658 68.7992 69.2298 68.7992C70.3938 68.7992 71.3898 69.0752 72.2178 69.6272C73.0458 70.1672 73.6818 70.9292 74.1258 71.9132C74.5818 72.8972 74.8098 74.0312 74.8098 75.3152C74.8098 76.6112 74.5818 77.7512 74.1258 78.7352C73.6818 79.7072 73.0458 80.4692 72.2178 81.0212C71.3898 81.5612 70.3938 81.8312 69.2298 81.8312ZM69.2298 79.7612C70.1778 79.7612 70.9518 79.3652 71.5518 78.5732C72.1518 77.7812 72.4518 76.6952 72.4518 75.3152C72.4518 73.9352 72.1518 72.8492 71.5518 72.0572C70.9518 71.2652 70.1778 70.8692 69.2298 70.8692C68.2698 70.8692 67.4898 71.2652 66.8898 72.0572C66.3018 72.8492 66.0078 73.9352 66.0078 75.3152C66.0078 76.6952 66.3018 77.7812 66.8898 78.5732C67.4898 79.3652 68.2698 79.7612 69.2298 79.7612ZM75.3262 83.7032L76.3522 79.2212H78.5842L76.8382 83.7032H75.3262ZM85.6302 81.8312C84.4662 81.8312 83.4702 81.5612 82.6422 81.0212C81.8142 80.4692 81.1722 79.7072 80.7162 78.7352C80.2722 77.7512 80.0502 76.6112 80.0502 75.3152C80.0502 74.0312 80.2722 72.8972 80.7162 71.9132C81.1722 70.9292 81.8142 70.1672 82.6422 69.6272C83.4702 69.0752 84.4662 68.7992 85.6302 68.7992C86.7942 68.7992 87.7902 69.0752 88.6182 69.6272C89.4462 70.1672 90.0822 70.9292 90.5262 71.9132C90.9822 72.8972 91.2102 74.0312 91.2102 75.3152C91.2102 76.6112 90.9822 77.7512 90.5262 78.7352C90.0822 79.7072 89.4462 80.4692 88.6182 81.0212C87.7902 81.5612 86.7942 81.8312 85.6302 81.8312ZM85.6302 79.7612C86.5782 79.7612 87.3522 79.3652 87.9522 78.5732C88.5522 77.7812 88.8522 76.6952 88.8522 75.3152C88.8522 73.9352 88.5522 72.8492 87.9522 72.0572C87.3522 71.2652 86.5782 70.8692 85.6302 70.8692C84.6702 70.8692 83.8902 71.2652 83.2902 72.0572C82.7022 72.8492 82.4082 73.9352 82.4082 75.3152C82.4082 76.6952 82.7022 77.7812 83.2902 78.5732C83.8902 79.3652 84.6702 79.7612 85.6302 79.7612ZM98.4095 81.8312C97.2455 81.8312 96.2495 81.5612 95.4215 81.0212C94.5935 80.4692 93.9515 79.7072 93.4955 78.7352C93.0515 77.7512 92.8295 76.6112 92.8295 75.3152C92.8295 74.0312 93.0515 72.8972 93.4955 71.9132C93.9515 70.9292 94.5935 70.1672 95.4215 69.6272C96.2495 69.0752 97.2455 68.7992 98.4095 68.7992C99.5735 68.7992 100.57 69.0752 101.398 69.6272C102.226 70.1672 102.862 70.9292 103.306 71.9132C103.762 72.8972 103.99 74.0312 103.99 75.3152C103.99 76.6112 103.762 77.7512 103.306 78.7352C102.862 79.7072 102.226 80.4692 101.398 81.0212C100.57 81.5612 99.5735 81.8312 98.4095 81.8312ZM98.4095 79.7612C99.3575 79.7612 100.132 79.3652 100.732 78.5732C101.332 77.7812 101.632 76.6952 101.632 75.3152C101.632 73.9352 101.332 72.8492 100.732 72.0572C100.132 71.2652 99.3575 70.8692 98.4095 70.8692C97.4495 70.8692 96.6695 71.2652 96.0695 72.0572C95.4815 72.8492 95.1875 73.9352 95.1875 75.3152C95.1875 76.6952 95.4815 77.7812 96.0695 78.5732C96.6695 79.3652 97.4495 79.7612 98.4095 79.7612Z" fill="#68F4A0"/>
<path d="M289.946 26.2642H269.091L289.946 47.2642V26.2642Z" fill="#B05DFB"/>
<path d="M312.08 26.2642H291.232L312.08 47.2642V26.2642Z" fill="#B05DFB"/>
<defs>
<clipPath id="clip0_2838_31727">
<rect width="39" height="73" fill="white" transform="translate(195 70)"/>
</clipPath>
</defs>
</svg>
