<svg width="173" height="122" viewBox="0 0 173 122" fill="none" xmlns="http://www.w3.org/2000/svg">
<g clip-path="url(#clip0_2838_31650)">
<path d="M86.1466 19.259C81.3861 19.2644 76.8221 21.1577 73.4556 24.5237C70.0891 27.8896 68.1951 32.4533 68.1889 37.2138H76.5812V52.4023C78.936 53.8849 81.6032 54.7999 84.3722 55.0749C87.1412 55.3499 89.9362 54.9774 92.5366 53.9869C95.137 52.9964 97.4715 51.4149 99.3558 49.3674C101.24 47.3198 102.623 44.8623 103.394 42.1888C104.166 39.5152 104.305 36.699 103.802 33.9623C103.298 31.2256 102.165 28.6434 100.493 26.4196C98.82 24.1959 96.6532 22.3914 94.1635 21.1487C91.6738 19.906 88.9292 19.2591 86.1466 19.259ZM86.1466 46.7821C84.2553 46.7821 82.4063 46.2214 80.8336 45.1709C79.2608 44.1203 78.0348 42.6271 77.3105 40.8799C76.5862 39.1328 76.396 37.2101 76.7642 35.3549C77.1323 33.4997 78.0422 31.7953 79.3787 30.4571C80.7153 29.1189 82.4186 28.207 84.2733 27.8366C86.1281 27.4662 88.051 27.6539 89.799 28.3761C91.5471 29.0983 93.0418 30.3225 94.0943 31.894C95.1467 33.4655 95.7097 35.3137 95.712 37.2051C95.7089 39.741 94.7001 42.1722 92.9069 43.9654C91.1138 45.7586 88.6826 46.7674 86.1466 46.7704V46.7821Z" fill="#F8777A"/>
<path d="M72.3035 2.82759C75.1603 4.28662 77.9383 5.74565 80.7659 7.18716L85.2713 0.201344C85.3123 0.139343 85.368 0.0884632 85.4334 0.0532613C85.4989 0.0180595 85.572 -0.000366211 85.6463 -0.000366211C85.7206 -0.000366211 85.7938 0.0180595 85.8592 0.0532613C85.9246 0.0884632 85.9803 0.139343 86.0213 0.201344L90.5151 7.18716C93.3689 5.72814 95.9719 4.35373 98.852 2.8772C98.852 2.8772 99.17 2.69336 99.0971 2.91222C99.0533 3.0552 99.0679 3.00268 99.0416 3.08146C97.6021 7.16674 96.1654 11.252 94.7317 15.3373C94.7141 15.4188 94.6657 15.4903 94.5967 15.5371C94.5277 15.5838 94.4433 15.6021 94.3611 15.5882C91.5597 15.5882 88.7584 15.5882 85.9571 15.5882C82.9496 15.5882 79.941 15.5882 76.9316 15.5882C76.8861 15.5957 76.8396 15.594 76.7948 15.5834C76.75 15.5727 76.7078 15.5532 76.6706 15.5261C76.6333 15.4989 76.6019 15.4646 76.5781 15.4252C76.5543 15.3858 76.5385 15.342 76.5318 15.2964C75.0922 11.1995 73.6487 7.10254 72.2014 3.00559C72.2014 3.00559 72.0467 2.6992 72.3035 2.82759Z" fill="#B05DFB"/>
<path d="M72.3151 120.807L69.5663 116.054V120.807H68.1977V112.491H69.1111L71.8599 117.241V112.482H73.243V120.807H72.3151Z" fill="#F8777A"/>
<path d="M84.7636 116.64C84.7636 119.625 83.5467 121 81.8951 121C80.2435 121 79.0267 119.625 79.0267 116.64C79.0267 113.655 80.2464 112.281 81.8951 112.281C83.5438 112.281 84.7636 113.655 84.7636 116.64ZM80.3719 116.64C80.3719 118.715 80.9905 119.368 81.8951 119.368C82.7997 119.368 83.4213 118.715 83.4213 116.64C83.4213 114.565 82.8026 113.912 81.8951 113.912C80.9876 113.912 80.3719 114.565 80.3719 116.64Z" fill="#F8777A"/>
<path d="M102.076 119.897C101.804 120.237 101.459 120.513 101.067 120.703C100.675 120.894 100.245 120.995 99.809 121C98.1399 121 96.891 119.631 96.891 116.588C96.891 113.687 98.0319 112.316 99.596 112.316C100.932 112.316 102.033 113.407 102.033 115.73H100.693C100.693 114.417 100.247 113.941 99.596 113.941C98.7556 113.941 98.2275 114.627 98.2275 116.567C98.2275 118.706 98.8548 119.366 99.7915 119.366C100.092 119.373 100.389 119.307 100.658 119.174C100.927 119.041 101.159 118.844 101.335 118.601L102.076 119.897Z" fill="#F8777A"/>
<path d="M113.419 116.67C113.419 119.64 112.205 121.012 110.562 121.012C108.919 121.012 107.705 119.64 107.705 116.67C107.705 113.699 108.922 112.325 110.562 112.325C112.202 112.325 113.419 113.696 113.419 116.67ZM109.042 116.67C109.042 118.736 109.657 119.386 110.559 119.386C111.461 119.386 112.079 118.736 112.079 116.67C112.079 114.604 111.464 113.95 110.559 113.95C109.655 113.95 109.045 114.601 109.045 116.67H109.042Z" fill="#F8777A"/>
<path d="M124.674 120.807V116.188L123.305 118.671H122.392L121.02 116.188V120.807H119.64V112.497H120.553L122.85 116.652L125.132 112.497H126.045V120.807H124.674Z" fill="#F8777A"/>
<path d="M136.685 120.807L136.218 119.38H133.708L133.25 120.807H131.791L134.522 112.497H135.436L138.149 120.81L136.685 120.807ZM135.342 116.649L134.969 114.898L134.592 116.649L134.245 117.717H135.689L135.342 116.649Z" fill="#F8777A"/>
<path d="M148.021 120.807L145.272 116.057V120.807H143.904V112.497H144.817L147.566 117.247V112.497H148.935V120.807H148.021Z" fill="#F8777A"/>
<path d="M155.532 120.822V112.508H157.458C159.285 112.508 160.636 113.816 160.636 116.664C160.636 119.512 159.285 120.822 157.458 120.822H155.532ZM157.432 119.159C158.555 119.159 159.267 118.54 159.267 116.664C159.267 114.787 158.555 114.172 157.432 114.172H156.901V119.159H157.432Z" fill="#F8777A"/>
<path d="M171.733 116.67C171.733 119.64 170.519 121.012 168.876 121.012C167.234 121.012 166.02 119.64 166.02 116.67C166.02 113.699 167.234 112.325 168.876 112.325C170.519 112.325 171.733 113.696 171.733 116.67ZM167.356 116.67C167.356 118.736 167.972 119.386 168.874 119.386C169.775 119.386 170.391 118.736 170.391 116.67C170.391 114.604 169.775 113.95 168.874 113.95C167.972 113.95 167.359 114.601 167.359 116.67H167.356Z" fill="#F8777A"/>
<path d="M100.495 93.9613C100.719 93.7473 100.897 93.4889 101.016 93.2025C101.135 92.9161 101.193 92.6081 101.186 92.298C101.22 90.485 100.839 88.6883 100.072 87.0455C99.3477 85.5329 98.2028 84.2613 96.7742 83.3833C95.2255 82.4687 93.451 82.0076 91.653 82.0527C89.7926 82.0212 87.9577 82.4888 86.3392 83.4067C84.802 84.2961 83.5391 85.5913 82.6888 87.1505C81.7942 88.8281 81.3432 90.7064 81.3785 92.6073C81.346 94.5124 81.8268 96.3912 82.7705 98.0465C83.6862 99.6211 85.0165 100.914 86.6164 101.785C88.0201 102.529 89.5621 102.975 91.1461 103.097C92.7301 103.218 94.3222 103.012 95.8229 102.491C96.9813 102.124 98.0674 101.559 99.0328 100.822C99.3172 100.63 99.5472 100.368 99.7006 100.061C99.854 99.7545 99.9255 99.4133 99.9082 99.0708C99.8703 98.4376 99.523 97.9036 99.0007 97.3666C98.7889 97.1686 98.538 97.0171 98.264 96.9221C97.9901 96.8271 97.6993 96.7907 97.4103 96.8151C96.8445 96.8683 96.3004 97.0597 95.8258 97.3725C95.3038 97.6951 94.754 97.9705 94.183 98.1954C93.5488 98.4274 92.8798 98.5497 92.2045 98.5572C91.0861 98.5854 89.9802 98.3155 89.0005 97.7752C88.1091 97.2773 87.3682 96.5485 86.8557 95.6654C86.6616 95.3292 86.5042 94.9731 86.3859 94.6032H98.7935C99.1054 94.614 99.4164 94.5628 99.7084 94.4526C100 94.3424 100.268 94.1754 100.495 93.9613ZM86.4414 90.2612C86.5257 89.9944 86.6291 89.734 86.7507 89.4821C87.1606 88.6188 87.8111 87.8922 88.6241 87.3898C89.5431 86.8585 90.5919 86.5938 91.653 86.6253C92.5304 86.5834 93.4 86.8065 94.1489 87.2655C94.8978 87.7245 95.4912 88.3982 95.8521 89.199C96.0144 89.5398 96.1434 89.8955 96.2373 90.2612H86.4414Z" fill="#50357C"/>
<path d="M171.237 93.6928C170.612 92.7666 169.752 92.0225 168.745 91.5364C167.359 90.864 165.886 90.3886 164.368 90.124C163.432 89.9545 162.512 89.7035 161.619 89.3741C160.931 89.0823 160.712 88.843 160.651 88.7496C160.51 88.5348 160.438 88.2825 160.443 88.026C160.443 87.7604 160.519 87.4424 161.088 87.1681C161.805 86.8479 162.586 86.6953 163.37 86.7216C164.091 86.7129 164.809 86.8112 165.5 87.0134C166.104 87.2145 166.652 87.5532 167.102 88.0026C167.573 88.437 168.16 88.7249 168.792 88.8314C169.124 88.9017 169.468 88.9035 169.801 88.8368C170.134 88.7701 170.45 88.6362 170.73 88.4432C170.993 88.2613 171.211 88.0216 171.368 87.7425C171.525 87.4633 171.616 87.1521 171.634 86.8325C171.649 86.5204 171.601 86.2086 171.494 85.9153C171.386 85.6221 171.22 85.3535 171.007 85.1254C170.163 84.1158 169.078 83.3359 167.852 82.8581C166.448 82.3055 164.949 82.0339 163.44 82.0585C162.179 82.0556 160.927 82.2668 159.737 82.683C158.575 83.0683 157.529 83.7431 156.7 84.6439C155.854 85.6104 155.406 86.8619 155.448 88.1456C155.441 88.9131 155.604 89.6725 155.927 90.369C156.249 91.0655 156.722 91.6815 157.312 92.1725C158.48 93.1968 160.338 93.9671 162.839 94.4632C164.543 94.7696 165.708 95.1489 166.3 95.5896C166.781 95.9485 167.009 96.3366 166.994 96.7772C166.98 97.2178 166.743 97.568 166.247 97.8744C165.664 98.2421 164.748 98.4259 163.539 98.4259C162.638 98.4387 161.744 98.2638 160.913 97.9123C160.291 97.6723 159.724 97.3079 159.247 96.8414C158.82 96.3685 158.237 96.065 157.604 95.9864C157.253 95.9507 156.897 95.988 156.561 96.0959C156.225 96.2039 155.914 96.3802 155.649 96.6138C155.377 96.8136 155.149 97.0677 154.979 97.36C154.81 97.6523 154.703 97.9765 154.666 98.3121C154.622 98.6617 154.658 99.0168 154.772 99.3501C154.887 99.6835 155.076 99.9862 155.325 100.235C156.339 101.182 157.547 101.898 158.865 102.333C160.412 102.878 162.042 103.149 163.682 103.136C165.225 103.18 166.758 102.891 168.179 102.289C169.33 101.787 170.318 100.972 171.03 99.9375C171.687 98.9467 172.032 97.7821 172.022 96.5934C172.043 95.5714 171.77 94.5649 171.237 93.6928Z" fill="#50357C"/>
<path d="M63.6602 82.7908C62.8285 82.2422 61.6613 81.9766 60.0855 81.9766C58.5991 81.9639 57.135 82.338 55.8369 83.0621C55.5257 83.2367 55.2264 83.4316 54.941 83.6458V82.5106C54.941 82.4031 54.8983 82.2999 54.8222 82.2238C54.7461 82.1478 54.643 82.105 54.5354 82.105H50.2867C50.1791 82.105 50.076 82.1478 49.9999 82.2238C49.9238 82.2999 49.8811 82.4031 49.8811 82.5106V102.607C49.8811 102.66 49.8916 102.713 49.912 102.762C49.9325 102.811 49.9624 102.856 50.0001 102.893C50.0378 102.93 50.0825 102.96 50.1317 102.98C50.1809 103 50.2336 103.01 50.2867 103.01H54.5354C54.5885 103.01 54.6412 103 54.6904 102.98C54.7396 102.96 54.7843 102.93 54.822 102.893C54.8597 102.856 54.8897 102.811 54.9101 102.762C54.9305 102.713 54.941 102.66 54.941 102.607V90.1676C54.9246 89.7747 54.9887 89.3826 55.1292 89.0153C55.2697 88.648 55.4837 88.3133 55.7581 88.0316C56.4366 87.3917 57.2877 86.9647 58.2063 86.8031C59.4349 86.5686 60.6988 86.5915 61.9181 86.8702C62.2954 86.9624 62.6875 86.9773 63.0707 86.914C63.4658 86.8437 63.8336 86.6649 64.1329 86.3975C64.4638 86.0964 64.6881 85.696 64.7719 85.2565C64.947 84.5854 64.8974 83.6078 63.6602 82.7908Z" fill="#50357C"/>
<path d="M129.103 82.7908C128.275 82.2422 127.104 81.9766 125.529 81.9766C124.043 81.9639 122.58 82.338 121.283 83.0622C120.971 83.2373 120.671 83.4323 120.384 83.6458V82.5106C120.384 82.4036 120.342 82.3008 120.266 82.2249C120.191 82.1489 120.089 82.1058 119.982 82.105H115.73C115.623 82.1058 115.52 82.1489 115.445 82.2249C115.37 82.3008 115.327 82.4036 115.327 82.5106V102.607C115.328 102.714 115.371 102.815 115.446 102.89C115.522 102.965 115.624 103.007 115.73 103.007H119.982C120.088 103.007 120.191 102.965 120.266 102.889C120.342 102.814 120.384 102.711 120.384 102.604V90.1676C120.368 89.7747 120.432 89.3826 120.572 89.0153C120.713 88.648 120.927 88.3133 121.201 88.0316C121.879 87.3917 122.729 86.9645 123.647 86.8031C124.876 86.5688 126.141 86.5917 127.361 86.8702C127.739 86.9626 128.131 86.9775 128.514 86.914C128.908 86.8437 129.275 86.6648 129.573 86.3975C129.904 86.0959 130.129 85.6959 130.215 85.2565C130.393 84.5854 130.341 83.6078 129.103 82.7908Z" fill="#50357C"/>
<path d="M110.168 82.0992H105.919C105.695 82.0992 105.514 82.2808 105.514 82.5048V102.599C105.514 102.823 105.695 103.004 105.919 103.004H110.168C110.392 103.004 110.574 102.823 110.574 102.599V82.5048C110.574 82.2808 110.392 82.0992 110.168 82.0992Z" fill="#50357C"/>
<path d="M77.9965 98.6709C77.7934 98.4327 77.5405 98.2421 77.2556 98.1125C76.9707 97.9829 76.6608 97.9175 76.3478 97.921H75.1514C74.8971 97.9201 74.6465 97.8594 74.4199 97.7438C74.1933 97.6282 73.9971 97.461 73.847 97.2556C73.4309 96.7222 73.2179 96.0582 73.2459 95.3822V87.4597H75.4695C76.102 87.4809 76.7181 87.256 77.1882 86.8324C77.4153 86.6283 77.5959 86.3778 77.7177 86.0979C77.8396 85.818 77.8998 85.5152 77.8944 85.2099C77.9043 84.8942 77.8464 84.58 77.7246 84.2885C77.6028 83.9971 77.4199 83.7351 77.1882 83.5204C76.7184 83.0962 76.1021 82.8712 75.4695 82.893H73.243V80.6432C73.243 80.5356 73.2003 80.4324 73.1242 80.3564C73.0481 80.2803 72.945 80.2375 72.8374 80.2375H68.5916C68.484 80.2375 68.3809 80.2803 68.3048 80.3564C68.2287 80.4324 68.186 80.5356 68.186 80.6432V95.3822C68.1701 96.7134 68.4786 98.0284 69.0848 99.2136C69.6567 100.33 70.5146 101.274 71.571 101.951C72.6405 102.63 73.8844 102.984 75.1514 102.969H75.7846C76.5096 102.993 77.2188 102.754 77.7806 102.295C78.0539 102.071 78.2727 101.787 78.4203 101.465C78.5679 101.144 78.6405 100.793 78.6326 100.439C78.6496 99.7909 78.4226 99.1598 77.9965 98.6709Z" fill="#50357C"/>
<path d="M35.4309 103.275C33.3243 103.275 31.2651 102.651 29.5136 101.48C27.762 100.31 26.3969 98.6466 25.5908 96.7005C24.7846 94.7543 24.5737 92.6127 24.9847 90.5466C25.3956 88.4806 26.41 86.5828 27.8996 85.0932C29.3891 83.6037 31.2869 82.5893 33.353 82.1783C35.4191 81.7673 37.5606 81.9782 39.5068 82.7844C41.453 83.5905 43.1165 84.9557 44.2868 86.7072C45.4571 88.4587 46.0818 90.518 46.0818 92.6245C46.0787 95.4484 44.9556 98.1557 42.9588 100.152C40.962 102.149 38.2547 103.272 35.4309 103.275ZM35.4309 86.9518C34.3089 86.9518 33.2122 87.2845 32.2793 87.9079C31.3464 88.5312 30.6194 89.4171 30.19 90.4537C29.7607 91.4902 29.6483 92.6308 29.8672 93.7312C30.0861 94.8316 30.6264 95.8424 31.4197 96.6357C32.213 97.4291 33.2238 97.9694 34.3242 98.1882C35.4246 98.4071 36.5652 98.2948 37.6017 97.8654C38.6383 97.4361 39.5242 96.709 40.1476 95.7761C40.7709 94.8432 41.1036 93.7465 41.1036 92.6245C41.1005 91.1215 40.5017 89.681 39.4383 88.6188C38.375 87.5566 36.9339 86.9592 35.4309 86.9577V86.9518Z" fill="#50357C"/>
<path d="M141.703 103.275C139.597 103.275 137.538 102.651 135.786 101.48C134.035 100.31 132.669 98.6466 131.863 96.7005C131.057 94.7543 130.846 92.6127 131.257 90.5466C131.668 88.4806 132.683 86.5828 134.172 85.0932C135.662 83.6037 137.56 82.5893 139.626 82.1783C141.692 81.7673 143.833 81.9782 145.779 82.7844C147.726 83.5905 149.389 84.9557 150.559 86.7072C151.73 88.4587 152.354 90.518 152.354 92.6245C152.351 95.4484 151.228 98.1557 149.231 100.152C147.235 102.149 144.527 103.272 141.703 103.275ZM141.703 86.9518C140.582 86.9518 139.485 87.2845 138.552 87.9079C137.619 88.5312 136.892 89.4171 136.463 90.4537C136.033 91.4902 135.921 92.6308 136.14 93.7312C136.359 94.8316 136.899 95.8424 137.692 96.6357C138.486 97.4291 139.496 97.9694 140.597 98.1882C141.697 98.4071 142.838 98.2948 143.874 97.8654C144.911 97.4361 145.797 96.709 146.42 95.7761C147.043 94.8432 147.376 93.7465 147.376 92.6245C147.372 91.1218 146.773 89.6817 145.71 88.6197C144.647 87.5576 143.206 86.96 141.703 86.9577V86.9518Z" fill="#50357C"/>
<path d="M10.6392 103.273C8.53485 103.273 6.47758 102.65 4.72759 101.481C2.97759 100.312 1.61348 98.651 0.807776 96.707C0.00207044 94.763 -0.209038 92.6237 0.201149 90.5597C0.611336 88.4957 1.62439 86.5997 3.1122 85.1115C4.60001 83.6232 6.49573 82.6097 8.55962 82.1989C10.6235 81.7882 12.7628 81.9987 14.7071 82.8038C16.6513 83.609 18.3131 84.9727 19.4823 86.7223C20.6515 88.472 21.2755 90.5291 21.2755 92.6335C21.2724 95.4537 20.1509 98.1576 18.157 100.152C16.163 102.147 13.4595 103.269 10.6392 103.273ZM10.6392 86.9666C9.51842 86.9666 8.42279 87.299 7.49088 87.9217C6.55897 88.5443 5.83263 89.4294 5.40372 90.4649C4.97481 91.5004 4.86259 92.6398 5.08124 93.739C5.2999 94.8383 5.83962 95.848 6.63214 96.6406C7.42467 97.4331 8.4344 97.9728 9.53367 98.1915C10.6329 98.4101 11.7723 98.2979 12.8078 97.869C13.8433 97.4401 14.7284 96.7137 15.351 95.7818C15.9737 94.8499 16.3061 93.7543 16.3061 92.6335C16.3069 91.1295 15.7103 89.6868 14.6477 88.6225C13.585 87.5582 12.1432 86.9594 10.6392 86.9579V86.9666Z" fill="#50357C"/>
<path d="M4.558 112.444H0.414364C0.360087 112.445 0.30627 112.434 0.256014 112.414C0.205758 112.393 0.160055 112.363 0.121539 112.325C0.0830236 112.287 0.0524555 112.241 0.0315962 112.191C0.0107369 112.141 -1.36496e-06 112.087 1.30136e-10 112.033L1.30136e-10 92.6337H4.96069V112.033C4.95998 112.14 4.91759 112.243 4.84247 112.32C4.76735 112.397 4.66536 112.441 4.558 112.444Z" fill="#50357C"/>
<path d="M108.009 80.2083C107.697 80.2114 107.389 80.1504 107.102 80.0289C106.815 79.9074 106.557 79.728 106.343 79.5021C106.121 79.2814 105.945 79.019 105.825 78.7301C105.704 78.4411 105.643 78.1313 105.643 77.8184C105.643 77.5055 105.704 77.1956 105.825 76.9067C105.945 76.6177 106.121 76.3554 106.343 76.1347C106.559 75.9114 106.818 75.7339 107.104 75.6127C107.39 75.4914 107.698 75.429 108.009 75.429C108.32 75.429 108.627 75.4914 108.913 75.6127C109.2 75.7339 109.459 75.9114 109.675 76.1347C109.897 76.3554 110.073 76.6177 110.193 76.9067C110.313 77.1956 110.375 77.5055 110.375 77.8184C110.375 78.1313 110.313 78.4411 110.193 78.7301C110.073 79.019 109.897 79.2814 109.675 79.5021C109.461 79.728 109.202 79.9074 108.915 80.0289C108.629 80.1504 108.32 80.2114 108.009 80.2083Z" fill="#50357C"/>
<path d="M68.3231 38.9121C68.3027 38.9121 68.3056 38.6903 68.2881 38.6786C68.2706 38.667 68.1947 37.2196 68.1889 37.2196V70.2432C68.1889 70.2963 68.1994 70.3489 68.2198 70.398C68.2403 70.447 68.2702 70.4916 68.3079 70.529C68.3456 70.5664 68.3903 70.596 68.4395 70.6161C68.4887 70.6362 68.5414 70.6463 68.5945 70.6459H76.1815C76.2346 70.6463 76.2873 70.6362 76.3365 70.6161C76.3856 70.596 76.4304 70.5664 76.4681 70.529C76.5058 70.4916 76.5357 70.447 76.5561 70.398C76.5766 70.3489 76.5871 70.2963 76.5871 70.2432V52.3906C74.2668 50.9297 72.3143 48.9538 70.8811 46.6163C69.448 44.2789 68.5727 41.6426 68.3231 38.9121Z" fill="#50357C"/>
<path d="M68.1889 37.2024C68.1927 40.2345 68.9644 43.2163 70.4319 45.8696C71.8994 48.5229 74.0149 50.7614 76.5812 52.3763V37.2024H68.1889Z" fill="#B05DFB"/>
</g>
<defs>
<clipPath id="clip0_2838_31650">
<rect width="172.025" height="121.012" fill="white"/>
</clipPath>
</defs>
</svg>
