<?xml version="1.0" standalone="no"?>
<!DOCTYPE svg PUBLIC "-//W3C//DTD SVG 20010904//EN"
 "http://www.w3.org/TR/2001/REC-SVG-20010904/DTD/svg10.dtd">
<svg version="1.0" xmlns="http://www.w3.org/2000/svg"
 width="626.000000pt" height="626.000000pt" viewBox="0 0 626.000000 626.000000"
 preserveAspectRatio="xMidYMid meet">

<g transform="translate(0.000000,626.000000) scale(0.100000,-0.100000)"
fill="#000000" stroke="none">
<path d="M4397 4613 c-15 -14 -5 -23 27 -23 18 0 39 -7 46 -15 16 -19 5 -62
-18 -69 -29 -10 -62 -45 -62 -66 0 -22 25 -27 37 -7 4 7 24 24 43 37 47 31 60
49 60 81 0 37 -42 69 -90 69 -20 0 -40 -3 -43 -7z"/>
<path d="M3805 4566 c-70 -26 -104 -93 -90 -176 6 -33 4 -39 -15 -45 -12 -4
-28 -22 -37 -40 -15 -31 -15 -35 4 -67 25 -43 72 -74 125 -82 45 -6 133 5 181
23 46 18 52 14 82 -49 16 -33 32 -60 36 -60 4 0 9 17 11 38 3 36 4 37 44 40
36 3 45 -1 68 -28 15 -19 26 -44 26 -61 0 -37 -40 -79 -75 -79 -25 0 -25 0 -8
-26 l17 -26 23 28 c13 16 40 63 60 104 43 87 48 153 18 210 -22 44 -133 177
-182 220 -82 72 -208 105 -288 76z"/>
<path d="M1485 4506 c-69 -31 -105 -106 -105 -217 0 -75 11 -113 42 -146 11
-12 17 -26 14 -31 -8 -14 -243 -90 -349 -113 -94 -21 -105 -25 -95 -35 10 -9
275 61 381 101 l98 36 52 -18 c75 -26 301 -23 460 6 135 25 351 91 339 103 -5
5 -26 2 -48 -6 -66 -26 -210 -65 -301 -81 -184 -34 -458 -28 -470 10 -1 6 13
21 31 33 51 35 104 118 117 182 27 135 -58 224 -166 176z m120 -30 c71 -72 20
-246 -95 -322 l-41 -27 -28 27 c-53 50 -64 163 -25 250 40 91 134 127 189 72z"/>
<path d="M4349 4374 c-15 -18 -2 -47 24 -52 22 -5 42 35 26 54 -15 18 -33 18
-50 -2z"/>
<path d="M2475 4230 c-13 -5 -14 -9 -5 -9 8 0 24 4 35 9 13 5 14 9 5 9 -8 0
-24 -4 -35 -9z"/>
<path d="M2868 4170 c-163 -89 -63 -340 116 -290 170 47 145 293 -31 307 -35
2 -58 -2 -85 -17z m22 -31 c0 -6 -12 -25 -26 -42 -23 -28 -26 -37 -21 -84 6
-55 -4 -68 -24 -32 -19 36 -5 106 27 140 29 30 44 37 44 18z m13 -206 c22 -7
22 -33 0 -33 -18 0 -53 28 -53 43 0 5 8 6 18 2 9 -4 25 -10 35 -12z"/>
<path d="M3365 4170 c-56 -29 -78 -63 -83 -130 -3 -45 0 -61 20 -89 38 -57 73
-76 133 -76 90 0 155 67 155 159 0 61 -23 100 -77 133 -47 28 -96 29 -148 3z
m18 -27 c4 -4 -5 -20 -20 -36 -25 -25 -28 -36 -27 -88 1 -63 -12 -75 -29 -25
-13 38 -1 90 29 126 26 31 35 35 47 23z m0 -205 c28 -13 37 -38 14 -38 -17 0
-57 29 -57 41 0 12 11 11 43 -3z"/>
<path d="M4095 3780 c-55 -3 -86 -7 -69 -8 16 -1 36 -8 43 -14 11 -10 13 -10
7 0 -5 8 0 12 16 12 16 0 19 -3 10 -9 -8 -5 18 -9 62 -9 41 -1 77 2 80 6 3 5
-16 7 -42 6 -36 -2 -41 -1 -22 6 39 13 114 11 130 -2 12 -11 12 -10 1 5 -14
18 -25 19 -216 7z"/>
<path d="M3406 3771 c-5 -7 -1 -8 10 -4 13 5 15 3 9 -8 -6 -11 -5 -12 6 -1 18
16 69 15 93 -3 12 -9 39 -14 70 -13 45 1 47 2 16 7 l-35 5 45 7 45 7 -60 1
c-33 1 -90 5 -126 7 -42 4 -69 2 -73 -5z"/>
<path d="M3463 3753 c9 -2 23 -2 30 0 6 3 -1 5 -18 5 -16 0 -22 -2 -12 -5z"/>
<path d="M3673 3753 c-26 -9 -12 -23 23 -23 35 0 45 19 13 28 -11 3 -11 2 1
-7 8 -6 10 -11 5 -11 -6 0 -15 4 -20 9 -6 5 -16 6 -22 4z"/>
<path d="M4008 3743 c6 -2 18 -2 25 0 6 3 1 5 -13 5 -14 0 -19 -2 -12 -5z"/>
<path d="M3357 3545 c-21 -109 -36 -200 -33 -202 2 -3 8 16 11 41 4 25 11 44
15 41 5 -3 6 4 3 15 -3 11 -2 28 2 37 4 10 9 29 11 43 6 47 16 95 22 105 3 5
6 22 7 38 1 16 8 33 16 38 9 5 9 9 2 9 -6 0 -13 7 -15 17 -2 9 -20 -73 -41
-182z"/>
<path d="M4213 3733 c-70 -3 -93 -7 -93 -17 0 -11 8 -12 38 -5 20 5 60 8 87 7
l50 -1 -50 -6 -50 -7 63 -4 c50 -4 62 -2 62 10 0 12 2 13 9 1 5 -7 6 -23 4
-35 -3 -13 -1 -17 4 -10 5 8 26 -25 57 -90 26 -55 55 -114 63 -131 13 -28 13
-28 -1 -11 -9 11 -16 16 -16 11 0 -5 9 -18 19 -29 29 -31 71 -112 71 -135 0
-12 4 -21 9 -21 9 0 27 -34 71 -135 12 -27 46 -100 76 -160 30 -61 54 -116 54
-123 0 -6 5 -12 10 -12 6 0 10 -12 10 -26 0 -14 4 -23 10 -19 6 3 10 0 10 -8
0 -8 7 -20 15 -27 13 -10 15 -9 15 8 0 12 -5 24 -11 27 -5 4 -8 12 -6 18 2 7
-3 23 -13 37 -18 27 -120 235 -120 245 0 3 6 3 13 -1 7 -4 9 -3 4 2 -5 5 -13
9 -18 9 -14 0 -110 225 -102 238 3 6 2 7 -4 4 -6 -4 -29 32 -52 78 -43 89 -48
105 -31 105 6 0 10 -6 10 -12 0 -9 3 -8 10 2 8 14 -18 75 -29 65 -2 -3 -10 0
-17 6 -10 8 -11 5 -7 -13 8 -33 -2 -19 -15 21 -11 31 -10 33 8 28 11 -3 20 -1
20 4 0 5 -16 9 -35 9 -33 0 -37 4 -62 55 -15 30 -32 54 -38 53 -5 -1 -52 -4
-102 -5z"/>
<path d="M3451 3720 c9 -5 28 -6 45 0 27 8 26 8 -16 9 -32 0 -40 -2 -29 -9z"/>
<path d="M3526 3711 c-5 -8 84 -3 93 5 2 2 -16 4 -42 4 -25 0 -48 -4 -51 -9z"/>
<path d="M4016 3705 c4 -8 10 -15 16 -15 5 0 7 4 3 9 -3 5 7 12 22 14 23 3 21
4 -9 6 -29 1 -36 -2 -32 -14z"/>
<path d="M3672 3703 c28 -3 38 -9 41 -26 4 -18 5 -17 6 6 1 26 -1 27 -41 25
l-43 -1 37 -4z"/>
<path d="M4053 3680 c3 -10 1 -20 -3 -22 -11 -4 19 -78 32 -78 5 0 2 10 -6 22
-9 12 -16 32 -15 43 1 14 4 10 11 -12 11 -32 31 -43 43 -23 3 6 -1 10 -10 10
-16 0 -40 45 -36 68 1 6 -3 12 -10 12 -6 0 -9 -8 -6 -20z"/>
<path d="M3700 3598 c-5 -26 -13 -67 -16 -90 -4 -24 -12 -46 -18 -50 -8 -5 -7
-8 1 -8 7 0 10 -6 7 -14 -3 -7 -14 -70 -25 -140 -10 -69 -28 -183 -39 -253
-11 -71 -20 -129 -20 -130 -1 -9 -19 -1 -23 10 -5 15 3 -40 9 -68 4 -16 3 -17
-5 -5 -8 11 -10 3 -7 -32 3 -26 -2 -77 -10 -115 -8 -37 -14 -84 -15 -103 0
-29 -2 -32 -10 -15 -8 18 -8 18 -7 -5 1 -14 -1 -31 -6 -39 -7 -10 -4 -12 13
-6 21 6 30 -8 11 -20 -6 -3 -9 -40 -8 -83 1 -63 2 -67 5 -24 2 30 8 50 14 47
5 -4 9 -2 9 4 0 5 -6 11 -12 14 -10 3 -10 9 -2 28 7 13 12 40 13 59 2 75 22
117 34 73 3 -11 5 -8 6 9 1 18 -3 26 -12 22 -9 -3 -12 6 -9 36 2 22 7 38 11
36 3 -2 7 19 8 46 1 28 5 58 9 67 4 9 9 41 10 71 3 48 13 94 40 179 5 16 4 22
-3 18 -8 -5 -8 6 -2 33 5 23 12 60 15 83 2 23 16 109 29 191 14 83 25 160 25
172 0 28 52 43 77 22 12 -9 15 -9 9 0 -4 7 -1 12 9 12 12 0 14 -4 5 -19 -15
-29 -13 -46 3 -32 8 6 18 7 22 3 5 -4 5 1 2 11 -4 10 -7 25 -7 32 0 9 -19 14
-65 17 l-64 3 -11 -47z"/>
<path d="M3390 3609 c0 -5 5 -7 10 -4 6 3 10 8 10 11 0 2 -4 4 -10 4 -5 0 -10
-5 -10 -11z"/>
<path d="M4320 3596 c0 -7 11 -16 25 -18 19 -4 25 -1 25 13 0 14 -7 19 -25 19
-15 0 -25 -6 -25 -14z"/>
<path d="M4097 3575 c-10 -7 -17 -17 -16 -21 7 -40 -2 -44 -97 -47 -45 -2 -57
2 -92 31 -46 36 -52 38 -52 18 0 -8 -6 -17 -12 -19 -10 -4 -10 -6 0 -6 7 -1
15 6 18 14 4 8 10 12 15 9 5 -3 6 -10 3 -16 -4 -6 -2 -8 4 -4 6 3 14 1 17 -5
4 -6 -2 -13 -14 -16 -28 -7 -28 -43 -1 -43 15 0 20 7 20 24 0 24 1 24 28 10
15 -7 46 -14 70 -14 26 0 41 -4 37 -10 -3 -5 -16 -10 -27 -10 -12 0 -19 -3
-15 -6 12 -12 59 6 54 21 -7 15 16 27 37 19 35 -13 184 -408 170 -450 -4 -13
-3 -15 3 -6 7 9 13 2 21 -26 7 -22 12 -49 12 -60 0 -11 4 -22 9 -24 13 -5 24
-48 12 -48 -20 0 -11 -28 10 -33 19 -5 21 -11 16 -49 -3 -24 -3 -34 2 -24 6
17 9 16 20 -11 6 -16 13 -40 15 -54 2 -13 11 -42 21 -64 10 -22 20 -71 22
-110 4 -69 3 -69 -11 -37 -12 25 -21 32 -44 32 -38 0 -107 -52 -122 -92 -30
-81 -15 -73 -161 -87 -287 -26 -375 -32 -404 -26 -22 4 -26 2 -15 -5 11 -7 2
-10 -35 -11 l-50 -2 45 -8 c25 -4 176 -8 336 -8 246 -1 293 -3 297 -16 15 -36
-113 -105 -349 -189 -169 -60 -192 -71 -182 -81 6 -6 48 8 313 107 87 32 195
88 215 113 16 20 28 19 75 -5 22 -11 58 -20 81 -20 46 0 245 48 307 74 70 30
37 33 -44 4 -45 -16 -112 -33 -148 -38 -146 -22 -154 -22 -189 0 -28 17 -32
23 -22 35 9 11 37 15 110 15 53 0 99 2 101 4 2 3 1 62 -4 132 -5 81 -4 138 2
156 6 18 7 26 1 23 -6 -4 -10 8 -10 27 0 22 -7 37 -20 46 -15 9 -19 19 -14 40
4 20 3 23 -5 12 -8 -12 -11 -11 -16 5 -8 26 -66 162 -154 360 -39 88 -71 165
-71 172 0 7 -4 13 -10 13 -5 0 -10 6 -11 13 0 6 -11 34 -23 61 -16 32 -22 60
-19 82 3 22 0 34 -7 34 -6 0 -9 -4 -5 -9 3 -5 2 -12 -3 -15 -4 -2 -13 8 -19
25 -7 17 -7 31 -2 35 14 8 11 24 -6 24 -8 0 -15 5 -15 11 0 5 4 8 9 4 13 -7
21 8 13 22 -5 8 -12 8 -25 -2z m267 -1098 c-1 -15 -2 -34 -2 -42 -1 -8 -20
-24 -42 -35 -50 -26 -64 -26 -50 -1 7 13 17 18 32 14 19 -4 20 -3 8 6 -12 9
-13 12 -1 20 10 7 11 13 2 30 -10 18 -9 23 11 30 33 14 43 8 42 -22z m-64 -6
c0 -5 -7 -11 -15 -15 -8 -3 -15 -15 -15 -26 0 -11 -4 -20 -10 -20 -14 0 -13 8
7 41 17 28 33 38 33 20z"/>
<path d="M3380 3530 c0 -5 4 -10 9 -10 6 0 13 5 16 10 3 6 -1 10 -9 10 -9 0
-16 -4 -16 -10z"/>
<path d="M3420 3530 c0 -5 5 -10 10 -10 6 0 10 5 10 10 0 6 -4 10 -10 10 -5 0
-10 -4 -10 -10z"/>
<path d="M4530 3496 c0 -8 50 -44 54 -38 2 4 -9 15 -25 24 -16 10 -29 16 -29
14z"/>
<path d="M4506 3472 c-3 -5 1 -9 9 -9 8 0 12 4 9 9 -3 4 -7 8 -9 8 -2 0 -6 -4
-9 -8z"/>
<path d="M4705 3469 c-18 -9 -18 -9 3 -5 18 3 22 1 18 -10 -3 -8 -2 -13 3 -9
5 3 12 -1 14 -7 3 -7 6 -8 6 -2 2 23 -24 42 -44 33z"/>
<path d="M4053 3463 c-7 -2 -13 -13 -13 -24 0 -13 7 -19 24 -19 19 0 22 4 18
25 -4 25 -7 27 -29 18z"/>
<path d="M4600 3460 c0 -5 5 -10 11 -10 5 0 7 5 4 10 -3 6 -8 10 -11 10 -2 0
-4 -4 -4 -10z"/>
<path d="M3640 3431 c0 -6 4 -13 10 -16 6 -3 7 1 4 9 -7 18 -14 21 -14 7z"/>
<path d="M3707 3426 c-4 -10 -7 -25 -6 -34 0 -11 4 -9 10 7 5 13 8 29 6 35 -2
5 -6 2 -10 -8z"/>
<path d="M4753 3410 c3 -8 8 -26 12 -39 6 -20 4 -23 -9 -18 -13 5 -16 -1 -16
-33 0 -38 1 -39 20 -28 11 7 16 14 10 16 -14 5 -13 29 2 38 6 4 9 3 5 -2 -3
-5 2 -18 10 -29 15 -19 15 -19 8 5 -9 29 -48 113 -42 90z"/>
<path d="M4120 3380 c0 -8 5 -22 10 -30 9 -13 10 -13 10 0 0 8 -5 22 -10 30
-9 13 -10 13 -10 0z"/>
<path d="M3362 3350 c0 -14 2 -19 5 -12 2 6 2 18 0 25 -3 6 -5 1 -5 -13z"/>
<path d="M3277 3140 c-21 -106 -36 -194 -33 -197 2 -3 8 16 11 41 4 25 12 46
17 46 5 0 6 4 3 10 -3 5 6 69 20 141 14 72 24 136 23 141 -2 6 -21 -76 -41
-182z"/>
<path d="M4806 3270 c3 -14 11 -32 16 -40 6 -10 7 -7 2 10 -3 14 -11 32 -16
40 -6 10 -7 7 -2 -10z"/>
<path d="M3320 3231 c-7 -17 -10 -36 -7 -43 3 -7 6 -3 6 10 1 24 21 31 21 7 0
-8 5 -15 10 -15 6 0 10 16 10 35 0 44 -23 47 -40 6z"/>
<path d="M4820 3205 c0 -2 9 -19 20 -37 23 -37 25 -35 9 11 -6 17 -15 31 -20
31 -5 0 -9 -2 -9 -5z"/>
<path d="M4625 3170 c3 -5 8 -10 11 -10 2 0 4 5 4 10 0 6 -5 10 -11 10 -5 0
-7 -4 -4 -10z"/>
<path d="M3671 3154 c0 -11 3 -14 6 -6 3 7 2 16 -1 19 -3 4 -6 -2 -5 -13z"/>
<path d="M4825 3140 c3 -5 -1 -10 -9 -10 -12 0 -16 -10 -16 -35 0 -28 4 -35
20 -35 13 0 20 7 20 19 0 10 7 21 15 25 9 3 15 0 15 -8 0 -8 -6 -16 -12 -19
-7 -2 -9 -8 -5 -13 4 -5 12 -2 17 6 8 12 10 11 11 -5 1 -11 1 -23 0 -27 0 -5
5 -8 12 -8 8 0 7 -4 -3 -10 -10 -6 -11 -10 -2 -10 6 0 12 -6 12 -14 0 -8 5
-16 11 -18 6 -2 11 -24 11 -49 0 -25 4 -52 9 -60 7 -11 9 -10 9 6 0 16 2 17 9
5 6 -8 7 -18 5 -22 -3 -4 0 -8 6 -8 7 0 10 6 8 13 -78 210 -102 267 -110 255
-6 -10 -10 -7 -14 10 -4 12 -11 22 -16 22 -5 0 -6 -4 -3 -10z"/>
<path d="M3330 3075 c0 -8 7 -15 15 -15 8 0 15 7 15 15 0 8 -7 15 -15 15 -8 0
-15 -7 -15 -15z"/>
<path d="M4600 3075 c0 -8 4 -15 10 -15 5 0 7 7 4 15 -4 8 -8 15 -10 15 -2 0
-4 -7 -4 -15z"/>
<path d="M3278 2975 c3 -26 9 -35 23 -35 15 0 19 7 19 35 0 30 -3 35 -23 35
-20 0 -23 -4 -19 -35z"/>
<path d="M3227 2893 c-18 -107 -18 -108 -9 -88 11 23 26 125 19 125 -2 0 -7
-17 -10 -37z"/>
<path d="M4970 2830 c-1 -8 -3 -28 -4 -45 -6 -77 2 -70 -87 -67 -56 3 -79 0
-74 -7 4 -7 -4 -11 -19 -11 -16 0 -26 -6 -26 -15 0 -12 4 -13 28 -2 15 6 30
16 33 21 4 5 23 5 48 -2 23 -5 51 -7 63 -4 14 3 19 1 14 -6 -10 -17 3 -15 21
3 10 11 14 29 11 55 -2 22 1 41 7 43 6 2 5 12 -2 28 -7 15 -12 19 -13 9z"/>
<path d="M3250 2803 c8 -3 18 -11 22 -17 5 -7 8 -4 8 7 0 11 -7 17 -22 16 -16
0 -18 -2 -8 -6z"/>
<path d="M3320 2795 c0 -8 3 -15 6 -15 3 0 12 7 20 15 14 13 13 15 -5 15 -12
0 -21 -6 -21 -15z"/>
<path d="M3202 2760 c0 -14 2 -19 5 -12 2 6 2 18 0 25 -3 6 -5 1 -5 -13z"/>
<path d="M3292 2760 c0 -14 2 -19 5 -12 2 6 2 18 0 25 -3 6 -5 1 -5 -13z"/>
<path d="M4993 2725 c0 -33 2 -45 4 -27 2 18 2 45 0 60 -2 15 -4 0 -4 -33z"/>
<path d="M3220 2749 c0 -11 5 -17 10 -14 6 3 10 13 10 21 0 8 -4 14 -10 14 -5
0 -10 -9 -10 -21z"/>
<path d="M3332 2720 c0 -14 2 -19 5 -12 2 6 2 18 0 25 -3 6 -5 1 -5 -13z"/>
<path d="M3182 2663 c-8 -50 -8 -69 0 -74 14 -9 49 12 42 23 -3 5 7 6 23 3 15
-3 22 -2 15 1 -6 3 -9 10 -6 16 4 7 -6 9 -29 6 l-36 -4 5 48 c8 71 -1 58 -14
-19z m28 -53 c0 -5 -7 -10 -15 -10 -8 0 -15 5 -15 10 0 6 7 10 15 10 8 0 15
-4 15 -10z"/>
<path d="M3272 2684 c-11 -12 -11 -17 2 -29 17 -17 46 -20 46 -5 0 6 -4 10
-10 10 -5 0 -10 9 -10 20 0 23 -10 25 -28 4z"/>
<path d="M4720 2654 c0 -8 -13 -20 -29 -29 -23 -12 -29 -21 -29 -45 1 -32 10
-33 13 -2 0 10 18 34 40 53 26 24 33 36 22 36 -10 0 -17 -6 -17 -13z"/>
<path d="M3400 2623 c1 -11 30 -43 60 -68 l25 -20 -22 26 c-13 14 -23 32 -23
41 0 9 -7 19 -16 22 -20 8 -24 8 -24 -1z"/>
<path d="M3355 2610 c27 -12 43 -12 25 0 -8 5 -22 9 -30 9 -10 0 -8 -3 5 -9z"/>
<path d="M3480 2570 c0 -5 5 -10 10 -10 6 0 10 5 10 10 0 6 -4 10 -10 10 -5 0
-10 -4 -10 -10z"/>
<path d="M4257 2573 c-12 -12 -7 -22 8 -17 8 4 15 10 15 15 0 11 -14 12 -23 2z"/>
<path d="M4308 2573 c7 -3 16 -2 19 1 4 3 -2 6 -13 5 -11 0 -14 -3 -6 -6z"/>
<path d="M4520 2574 c0 -5 12 -22 28 -37 19 -19 31 -24 42 -17 12 7 12 12 2
22 -9 9 -12 8 -12 -6 0 -15 -3 -16 -15 -6 -8 7 -12 17 -8 23 3 6 1 7 -5 3 -6
-3 -15 2 -21 11 -6 10 -11 13 -11 7z"/>
<path d="M3480 2515 c0 -8 5 -15 11 -15 5 0 7 -5 3 -12 -4 -7 -3 -8 4 -4 9 5
9 13 2 27 -13 23 -20 24 -20 4z"/>
<path d="M3600 2515 c0 -8 9 -15 20 -15 11 0 20 7 20 15 0 8 -9 15 -20 15 -11
0 -20 -7 -20 -15z"/>
<path d="M4645 2504 c-9 -14 -15 -15 -34 -4 -13 6 -21 7 -17 2 3 -6 19 -15 36
-20 28 -10 30 -9 30 14 0 28 -2 29 -15 8z"/>
<path d="M4210 2484 c0 -9 5 -14 12 -12 18 6 21 28 4 28 -9 0 -16 -7 -16 -16z"/>
<path d="M4870 2360 c-9 -6 -10 -10 -3 -10 6 0 15 5 18 10 8 12 4 12 -15 0z"/>
<path d="M3546 2344 c-9 -23 -7 -34 5 -34 5 0 7 5 4 10 -4 6 9 11 32 11 23 1
29 3 16 6 -13 2 -23 9 -23 14 0 15 -27 10 -34 -7z"/>
<path d="M3703 2343 c9 -2 25 -2 35 0 9 3 1 5 -18 5 -19 0 -27 -2 -17 -5z"/>
</g>
</svg>
